<?xml version="1.0" encoding="UTF-8" standalone="no"?>
<!-- Created with Inkscape (http://www.inkscape.org/) -->

<svg
   version="1.1"
   id="svg1"
   width="161.38211"
   height="219.78641"
   viewBox="0 0 161.38211 219.78641"
   xml:space="preserve"
   xmlns="http://www.w3.org/2000/svg"
   xmlns:svg="http://www.w3.org/2000/svg"><defs
     id="defs1" /><g
     id="g178"
     transform="translate(308.57592,193.08047)"><path
       fill="#7a7c7f"
       d="m -231.66135,-185.45163 8.23615,0.0272 c -4.09537,-10.18299 -4.26443,-10.22402 -8.23615,-0.0272 z"
       id="path10"
       style="fill:#666666;fill-opacity:1;stroke-width:0.208869" /><path
       fill="#6fadae"
       d="m -227.77747,-172.17244 c -2.04127,0 -3.85321,3.46931 -4.98987,8.83055 h 9.97954 c -1.13666,-5.36124 -2.9484,-8.83055 -4.98967,-8.83055 z"
       id="path13"
       style="fill:#aaccff;fill-opacity:1;stroke-width:0.208869" /><path
       fill="#95bfc8"
       d="m -222.7878,-163.34209 h -9.97954 c -0.0679,0.32018 -0.13285,0.64854 -0.19592,0.9821 h 10.37158 c -0.0633,-0.33335 -0.12825,-0.66171 -0.19612,-0.9821 z"
       id="path16"
       style="stroke-width:0.208869" /><polygon
       fill="#3e606f"
       points="678.142,1050.167 683.375,1060.254 729.935,1150 882.549,1108.912 882.549,1005.772 801.102,950.241 801.102,1025.821 721.999,1050.167 703.201,1042.269 702.955,1050.167 687.706,1050.167 "
       id="polygon5"
       transform="matrix(0.20886878,0,0,0.20886878,-353.46844,-213.49316)"
       style="fill:#808080" /><polygon
       fill="#3e606f"
       points="317.451,1005.772 317.451,1108.912 470.064,1150 516.625,1060.254 521.858,1050.167 512.901,1050.167 500.893,1050.167 500.542,1040.696 478,1050.167 398.897,1025.821 398.897,950.241 "
       id="polygon6"
       transform="matrix(0.20886878,0,0,0.20886878,-353.46844,-213.49316)"
       style="fill:#808080" /><path
       fill="#cbccce"
       d="m -217.77286,-131.93346 c 0.22035,13.42986 0.24709,26.28447 -0.0332,34.363519 -2.7625,38.160739 -15.89659,37.970667 -19.28632,0 0,0 -0.43946,-16.514839 -0.69115,-35.125459 l -15.73868,12.36858 0.59465,16.04969 2.59352,70.002571 2.46946,-1.823216 0.006,0.01734 12.28274,34.349726 -9.2038,3.866784 -4.14103,1.739878 0.0733,1.978195 h 2.5081 1.87083 14.40401 1.20852 l 1.07839,-1.974436 1.14293,1.974436 h 0.53157 14.27722 1.99762 3.18483 l 0.0516,-1.649642 -4.92303,-2.068219 -9.2036,-3.866789 12.28253,-34.349725 0.006,-0.01734 3.02505,2.233225 2.19229,-70.312958 0.54703,-17.54289 z"
       id="path8"
       style="fill:#666666;fill-opacity:1;stroke-width:0.208869" /><path
       fill="#1b434c"
       d="m -217.61513,-131.93345 c 0.52463,-29.27245 -4.15986,-46.78721 -5.80376,-53.36925 l -8.21838,0.009 c -1.46886,6.41248 -6.52991,24.42727 -6.14632,52.59803 0.25367,18.61062 0.69659,35.125459 0.69659,35.125459 3.41643,37.970672 16.65394,38.160742 19.43819,0 0.28251,-8.078839 -0.207,-20.933559 0.0337,-34.363299 z m -10.08338,3.8106 c -1.66201,0 -3.17202,-2.26769 -4.29532,-5.96362 -1.2214,-4.01822 -1.98515,-9.72514 -1.98515,-16.06118 0,-12.16389 2.81183,-22.02479 6.28047,-22.02479 3.46863,0 6.28046,9.8609 6.28046,22.02479 0,6.33583 -0.76417,12.04296 -1.98536,16.06118 -1.1233,3.69593 -2.63331,5.96362 -4.2951,5.96362 z"
       id="path9"
       style="fill:#808080;stroke-width:0.20969" /><rect
       style="fill:#b3b3b3;fill-opacity:1;fill-rule:evenodd;stroke:none;stroke-width:3.12309;stroke-linecap:round;stroke-linejoin:round"
       id="rect61"
       width="2.0070398"
       height="32.638096"
       x="-228.86935"
       y="-33.731823"
       ry="6.2517228e-07" /><polygon
       fill="#8aabbf"
       points="703.201,1042.269 721.999,1050.167 801.102,1025.821 801.102,950.241 801.102,928.094 740.988,883.71 708.884,860.007 694.402,849.315 694.372,849.398 635.567,1013.854 679.631,1032.367 "
       id="polygon9"
       transform="matrix(0.20886878,0,0,0.20886878,-353.46844,-213.49316)"
       style="fill:#4d4d4d" /><polygon
       fill="#8aabbf"
       points="398.897,1025.821 478,1050.167 500.542,1040.696 520.368,1032.367 564.433,1013.854 505.627,849.398 505.598,849.315 493.775,858.044 459.012,883.71 398.897,928.094 398.897,950.241 "
       id="polygon10"
       transform="matrix(0.20886878,0,0,0.20886878,-353.46844,-213.49316)"
       style="fill:#4d4d4d" /><path
       fill="#6fadae"
       d="m -232.29885,-135.00446 h 9.04234 c 0.65418,-2.43812 1.1515,-5.40342 1.43681,-8.69771 h -11.91596 c 0.28531,3.29429 0.78284,6.25959 1.43681,8.69771 z"
       id="path11"
       style="fill:#aaccff;fill-opacity:1;stroke-width:0.208869" /><path
       fill="#6fadae"
       d="m -234.00907,-150.18156 c 0,2.40234 0.0687,4.73126 0.19508,6.95595 h 12.07283 c 0.12636,-2.22469 0.19508,-4.55361 0.19508,-6.95595 0,-1.399 -0.0236,-2.77326 -0.0675,-4.1175 h -12.32786 c -0.0441,1.34424 -0.0677,2.71825 -0.0677,4.1175 z"
       id="path12"
       style="fill:#aaccff;fill-opacity:1;stroke-width:0.235674" /><path
       fill="#6fadae"
       d="m -222.59188,-162.35999 h -10.37159 c -0.44928,2.37942 -0.77073,5.08553 -0.9303,7.99633 h 12.23198 c -0.15937,-2.9108 -0.48061,-5.61691 -0.93009,-7.99633 z"
       id="path14"
       style="fill:#aaccff;fill-opacity:1;stroke-width:0.208869" /><path
       fill="#6fadae"
       d="m -227.77747,-128.12285 c 1.6392,0 3.12885,-2.24221 4.2415,-5.89951 h -8.48279 c 1.11223,3.65709 2.60209,5.89951 4.24129,5.89951 z"
       id="path15"
       style="fill:#aaccff;fill-opacity:1;stroke-width:0.208869" /><path
       fill="#95bfc8"
       d="m -233.75286,-148.86268 c -0.018,0.325 -0.0342,0.65209 -0.0481,0.9821 h 12.32785 c -0.0138,-0.33001 -0.0301,-0.65689 -0.0481,-0.9821 z"
       id="path17-6"
       style="stroke-width:0.208869" /><path
       fill="#95bfc8"
       d="m -232.03923,-134.08669 c 0.007,0.0219 0.0136,0.0423 0.0203,0.0641 h 8.48278 c 0.007,-0.0219 0.0136,-0.0422 0.0203,-0.0641 0.0892,-0.29596 0.17524,-0.60384 0.25942,-0.91777 h -9.04235 c 0.0844,0.31393 0.17044,0.62181 0.25962,0.91777 z"
       id="path19"
       style="stroke-width:0.208869" /><g
       id="g176"><path
         id="polygon7"
         style="fill:#999999;stroke-width:0.208869"
         d="m -147.19381,-67.965301 -56.0184,-36.211999 -2.19249,70.312752 6.70552,4.950817 51.50537,-13.224318 z" /><path
         id="path167"
         style="fill:#b3b3b3;stroke-width:0.208869"
         d="m -161.98232,-64.444704 -38.17499,-15.236527 -0.16772,37.125304 c 10.86775,-1.315462 21.77322,-2.20583 32.67969,-3.116676 l 5.66302,-6.232491 z" /></g><g
       id="g175"
       transform="translate(-293.03476,34.638209)"><path
         id="path173"
         style="fill:#4d4d4d;fill-opacity:0.913725;fill-rule:evenodd;stroke-width:1.55019;stroke-linecap:round;stroke-linejoin:round"
         d="m 86.119767,-144.57831 -6.618633,3.05146 -3.274857,34.40151 -4.782171,10.100452 -0.631822,11.69719 c 9.042632,1.38291 5.96633,0.665808 13.567435,1.623829 0.316914,-17.027111 0.887451,-44.234831 1.740048,-60.874441 z" /><path
         id="path174"
         style="fill:#4d4d4d;fill-opacity:0.913725;fill-rule:evenodd;stroke-width:1.55019;stroke-linecap:round;stroke-linejoin:round"
         d="m 43.762454,-144.57831 6.618633,3.05146 3.274857,34.40151 4.782171,10.100452 0.631822,11.69719 c -9.042632,1.38291 -5.96633,0.665808 -13.567435,1.623829 -0.316914,-17.027111 -0.887451,-44.234831 -1.740048,-60.874441 z" /></g><g
       id="g177"
       transform="matrix(-1,0,0,1,-455.76973,-0.35294697)"><path
         id="path176"
         style="fill:#999999;stroke-width:0.208869"
         d="m -147.19381,-67.965301 -56.0184,-36.211999 -2.19249,70.312752 6.70552,4.950817 51.50537,-13.224318 z" /><path
         id="path177"
         style="fill:#b3b3b3;stroke-width:0.208869"
         d="m -161.98232,-64.444704 -38.17499,-15.236527 -0.16772,37.125304 c 10.86775,-1.315462 21.77322,-2.20583 32.67969,-3.116676 l 5.66302,-6.232491 z" /></g></g></svg>
