<?xml version="1.0" encoding="UTF-8" standalone="no"?>
<!-- Created with Inkscape (http://www.inkscape.org/) -->

<svg
   width="35.779396mm"
   height="47.422413mm"
   viewBox="0 0 126.77739 168.03216"
   id="svg2"
   version="1.1"
   xml:space="preserve"
   xmlns="http://www.w3.org/2000/svg"
   xmlns:svg="http://www.w3.org/2000/svg"
   xmlns:rdf="http://www.w3.org/1999/02/22-rdf-syntax-ns#"
   xmlns:cc="http://creativecommons.org/ns#"
   xmlns:dc="http://purl.org/dc/elements/1.1/"><defs
     id="defs4" /><metadata
     id="metadata7"><rdf:RDF><cc:Work
         rdf:about=""><dc:format>image/svg+xml</dc:format><dc:type
           rdf:resource="http://purl.org/dc/dcmitype/StillImage" /><dc:title /></cc:Work></rdf:RDF></metadata><g
     id="layer1"
     transform="translate(-240.41275,-615.7564)"><g
       id="g13"
       transform="matrix(1,0,0,-1,0,1399.545)"><g
         id="g12"><g
           id="g8"><g
             id="g7"><g
               id="g5"
               transform="matrix(0.16294028,0,0,-0.16294028,349.64521,813.71735)"><path
                 fill="#6fadae"
                 d="m -283.23996,322.55492 c -7.07906,0 -13.31438,17.88562 -17.04375,45.18937 h 34.10813 c -3.72844,-27.30375 -9.98532,-45.18937 -17.06438,-45.18937 z"
                 id="path1-3"
                 style="fill:#afe9dd;stroke-width:0.9375" /><path
                 fill="#6fadae"
                 d="m -283.23996,504.80772 c 11.83969,0 16.98,-7.9425 19.15031,-27.82968 h -39.60656 c 1.15875,19.88718 5.52,27.82968 20.45625,27.82968 z"
                 id="path2"
                 style="fill:#000000;fill-opacity:0;stroke-width:0.9375" /><path
                 fill="#6fadae"
                 d="m -264.30058,384.5771 h -37.85813 c -1.13813,12.8925 -1.77,27.17625 -1.77,42.19781 0,12.93563 -0.16875,23.99531 -0.14719,33.37031 h 41.10188 c 0.35812,-9.375 0.4425,-20.43468 0.4425,-33.37031 9.4e-4,-15.02156 -0.63094,-29.30531 -1.76906,-42.19781 z"
                 id="path3"
                 style="fill:#afe9dd;stroke-width:0.9375" /><path
                 fill="#4a4d4e"
                 d="m -303.69621,476.97804 h 39.60656 c 0.52688,-4.86657 0.885,-10.47 1.11657,-16.83282 h -41.10188 c 0,6.36188 0.105,11.96625 0.37875,16.83282 z"
                 id="path4"
                 style="fill:#afe9dd;stroke-width:0.9375" /><path
                 fill="#4a4d4e"
                 d="m -266.17558,367.74429 h -34.10813 c -0.71625,5.2875 -1.34813,10.9125 -1.875,16.83281 h 37.85813 c -0.52594,-5.92031 -1.15875,-11.54531 -1.875,-16.83281 z"
                 id="path5"
                 style="stroke-width:0.9375" /><path
                 fill="#4a4d4e"
                 d="m -235.02996,1109.4943 2.7675,40.1503 c 0.17437,2.5322 0.66844,5.0316 1.47094,7.4391 l 9.01312,27.0393 c 1.23469,3.7041 4.70063,6.2016 8.60531,6.2016 h 19.77375 c 3.80906,0 7.21219,-2.3794 8.51906,-5.9578 l 9.61219,-26.3072 c 1.03031,-2.8181 1.63219,-5.775 1.78594,-8.7712 l 1.98937,-38.6607 c -19.43062,2.6963 -40.91812,1.7757 -63.53718,-1.1334 z"
                 id="path6-6"
                 style="stroke-width:0.9375" /><path
                 fill="#4a4d4e"
                 d="m -391.21371,1110.6287 1.98938,38.6606 c 0.15469,2.9962 0.75656,5.9531 1.78594,8.7712 l 9.61218,26.3072 c 1.30782,3.5775 4.71094,5.9578 8.51906,5.9578 h 19.77375 c 3.90375,0 7.37063,-2.4984 8.60532,-6.2015 l 9.01312,-27.0394 c 0.8025,-2.4075 1.29656,-4.9069 1.47094,-7.4391 l 2.7675,-40.1503 c -22.61813,2.9082 -44.10563,3.8288 -63.53719,1.1335 z"
                 id="path7-7"
                 style="stroke-width:0.9375" /><path
                 fill="#7a7c7f"
                 d="m -74.799968,1061.1962 -27.574682,5.6962 v 51.2935 l -22.02657,9.974 c -6.79968,3.0788 -14.81343,0.1716 -18.05718,-6.5503 l -4.5075,-9.3412 -0.61875,-36.0375 -11.96156,2.4703 c 0.32718,7.3322 0.63843,14.7947 0.92531,22.4259 0.15656,4.1484 -2.74031,7.8319 -6.82406,8.5791 -1.26563,0.2315 -2.55375,0.4247 -3.84657,0.6103 l 29.37469,104.6128 123.440622,-31.5741 15.05343,-43.154 c 0,0 -49.24968,-52.8103 -73.37718,-79.005 z"
                 id="path8-5"
                 style="stroke-width:0.9375" /><path
                 fill="#7a7c7f"
                 d="m -404.08464,1101.1271 c 0.28781,-7.6312 0.59812,-15.0937 0.92531,-22.4259 l -11.96156,-2.4703 -0.61875,36.0375 -4.5075,9.3412 c -3.24375,6.7219 -11.25844,9.6291 -18.05719,6.5503 l -22.02656,-9.974 v -51.2935 l -27.57469,-5.6962 c -24.1275,26.1947 -73.37718,79.004 -73.37718,79.004 l 15.05343,43.1541 123.44062,31.575 29.37469,-104.6119 c -1.29281,-0.1856 -2.58,-0.3787 -3.84656,-0.6103 -4.08375,-0.7472 -6.97969,-4.4316 -6.82406,-8.58 z"
                 id="path9-3"
                 style="stroke-width:0.9375" /><path
                 fill="#cbccce"
                 d="M 100.77502,942.85364 -118.71903,713.69678 -143.56746,596.35741 c 0,0 -64.81875,-72.12281 -90.35719,-101.29125 4.02563,62.50875 6.53438,131.21437 6.53438,203.07468 0,4.86281 0.003,9.70312 0.007,14.52469 9.3e-4,1.40718 0.004,2.80406 0.006,4.2075 0.005,3.45562 0.009,6.90468 0.0159,10.33781 0.003,1.55156 0.007,3.09656 0.009,4.64437 0.007,3.42469 0.015,6.84188 0.0244,10.24313 0.003,1.2225 0.007,2.44312 0.009,3.66187 0.14343,52.66781 0.43781,102.51468 0.29437,148.515 6.45281,-55.24125 14.35031,-99.24656 23.09438,-98.29031 13.66687,0 35.75718,89.62968 44.38312,282.7153 v 0 l 11.96156,-2.4703 -1.89937,-110.55282 c -0.0197,-1.1475 1.46718,-1.61719 2.10937,-0.66563 l 42.68625,63.15195 c 1.50844,2.2312 2.31469,4.8628 2.31469,7.5562 v 31.1728 0 l 27.574682,-5.6962 145.20468,-29.9935 37.272178,-30.3703 z"
                 id="path10-5"
                 style="fill:#666666;stroke-width:0.9375" /><path
                 fill="#cbccce"
                 d="m -358.77621,795.98583 c 7.27688,-0.795 13.96875,29.53969 19.72875,71.58094 -0.0637,-34.6875 0.0469,-71.38031 0.12469,-109.70156 0.007,-3.12094 0.0131,-6.22594 0.0187,-9.36844 0.004,-1.88343 0.006,-3.7875 0.009,-5.6775 0.008,-4.66781 0.015,-9.35718 0.0206,-14.07 0.003,-1.92187 0.005,-3.84562 0.007,-5.77406 0.007,-6.45843 0.0112,-12.94406 0.0112,-19.48218 0,-71.95031 2.43469,-141.09187 6.35156,-204.18468 -27.58125,31.34343 -86.63343,97.04906 -86.63343,97.04906 l -24.84844,117.33937 -219.49405,229.15686 -6.90281,57.97966 37.27218,30.3704 145.20468,29.9934 27.57469,5.6963 v 0 -31.1728 c 0,-2.6935 0.80625,-5.325 2.31469,-7.5563 l 42.68625,-63.15191 c 0.64312,-0.95156 2.12906,-0.48188 2.10937,0.66562 l -1.89937,110.55289 11.96156,2.4703 v 0 c 8.62594,-193.08568 30.71625,-282.71537 44.38312,-282.71537 z"
                 id="path11-6"
                 style="fill:#666666;stroke-width:0.9375" /><path
                 fill="#ccc9bd"
                 d="m -227.36121,727.21177 c 0.003,1.5525 0.007,3.09657 0.009,4.64438 -0.003,-1.54688 -0.006,-3.09281 -0.009,-4.64438 z"
                 id="path12-2"
                 style="stroke-width:0.9375" /><path
                 fill="#ccc9bd"
                 d="m -227.38277,712.66646 c 9.3e-4,1.40719 0.004,2.80407 0.006,4.2075 -9.4e-4,-1.40343 -0.004,-2.80031 -0.006,-4.2075 z"
                 id="path13-9"
                 style="stroke-width:0.9375" /><path
                 fill="#ccc9bd"
                 d="m -227.32746,742.09927 c 0.003,1.2225 0.007,2.44313 0.009,3.66188 -0.004,-1.21781 -0.007,-2.43938 -0.009,-3.66188 z"
                 id="path14-1"
                 style="stroke-width:0.9375" /><path
                 fill="#ccc9bd"
                 d="m -338.85715,703.49303 c 0,6.53906 -0.005,13.02468 -0.0113,19.48218 0.007,-6.45843 0.0113,-12.94312 0.0113,-19.48218 z"
                 id="path15-2"
                 style="stroke-width:0.9375" /><path
                 fill="#ccc9bd"
                 d="m -338.87496,728.74927 c -0.006,4.71282 -0.0122,9.40219 -0.0206,14.07 0.008,-4.66781 0.0159,-9.35718 0.0206,-14.07 z"
                 id="path16-7"
                 style="stroke-width:0.9375" /><path
                 fill="#ccc9bd"
                 d="m -338.90402,748.49677 c -0.006,3.1425 -0.0122,6.2475 -0.0187,9.36844 0.007,-3.11812 0.0131,-6.22875 0.0187,-9.36844 z"
                 id="path17-0"
                 style="stroke-width:0.9375" /><path
                 fill="#afb1b3"
                 d="m -104.68934,1028.1634 -42.68625,-63.15195 c -0.64312,-0.95156 -2.12906,-0.48187 -2.10937,0.66563 l 1.89937,110.55282 0.61875,36.0375 4.5075,9.3413 c 3.24375,6.7218 11.2575,9.629 18.05719,6.5503 l 22.02656,-9.9741 v -51.2934 -31.1728 c 9.4e-4,-2.6916 -0.80531,-5.3241 -2.31375,-7.5553 z"
                 id="path18-9"
                 style="fill:#999999;stroke-width:0.9375" /><path
                 fill="#afb1b3"
                 d="m -159.54621,1078.7012 c -8.62594,-193.08568 -30.71532,-282.71537 -44.38313,-282.71537 -8.74406,-0.95531 -16.6425,43.04907 -23.09437,98.29031 0,0 0,9.4e-4 0,9.4e-4 -9.16594,78.4725 -15.4125,179.63162 -17.00719,206.89972 -0.23437,4.0031 2.67281,7.4953 6.64688,8.0278 0.13312,0.018 0.26343,0.032 0.39562,0.049 0.65438,0.082 1.30313,0.1556 1.95844,0.24 22.61906,2.9081 44.10656,3.8296 63.53812,1.1343 0.735,-0.1022 1.46719,-0.2062 2.20031,-0.3122 1.29282,-0.1856 2.58,-0.3787 3.84657,-0.6103 4.08375,-0.7472 6.97968,-4.4306 6.82406,-8.579 -0.28781,-7.6294 -0.59813,-15.0928 -0.92531,-22.425 z"
                 id="path19-3"
                 style="fill:#999999;stroke-width:0.9375" /><path
                 fill="#afb1b3"
                 d="m -339.04746,867.56771 v 0 c -5.76,-42.04125 -12.45187,-72.37688 -19.72875,-71.58094 -13.66687,0 -35.75718,89.62969 -44.38312,282.71533 -0.32719,7.3322 -0.63844,14.7947 -0.92531,22.4259 -0.15657,4.1485 2.74031,7.8319 6.82406,8.5791 1.26562,0.2316 2.55375,0.4247 3.84656,0.6103 0.73313,0.105 1.46625,0.21 2.20031,0.3122 19.11281,2.6513 40.22156,1.7925 62.43375,-1.0041 0.37031,-0.047 0.73406,-0.082 1.10438,-0.1303 0.7875,-0.1012 1.56375,-0.1828 2.35406,-0.2878 3.97406,-0.5334 6.88219,-4.0247 6.64687,-8.0278 -1.78312,-30.4903 -9.37968,-153.37315 -20.37281,-233.61189 z"
                 id="path20"
                 style="fill:#999999;stroke-width:0.9375" /><path
                 fill="#afb1b3"
                 d="m -415.33089,965.01145 -42.68625,63.15195 c -1.50844,2.2312 -2.31469,4.8628 -2.31469,7.5562 v 31.1728 51.2935 l 22.02656,9.974 c 6.79969,3.0788 14.81344,0.1716 18.05719,-6.5503 l 4.5075,-9.3412 0.61875,-36.0375 1.89937,-110.55289 c 0.0206,-1.14843 -1.46531,-1.61718 -2.10843,-0.66656 z"
                 id="path21"
                 style="fill:#999999;stroke-width:0.9375" /><path
                 fill="#d8d6d9"
                 d="m -227.31809,745.76209 c -0.004,-1.21875 -0.007,-2.43938 -0.009,-3.66188 -0.008,-3.40312 -0.0169,-6.8175 -0.0244,-10.24312 -0.004,-1.54782 -0.007,-3.09188 -0.009,-4.64438 -0.007,-3.43406 -0.0113,-6.88218 -0.0159,-10.33781 -0.002,-1.40344 -0.004,-2.80031 -0.006,-4.2075 -0.005,-4.8225 -0.007,-9.66187 -0.007,-14.52469 0,-71.86031 -2.50875,-140.56593 -6.53437,-203.07468 -5.56969,-86.49655 -14.04938,-161.10374 -22.85438,-215.57342 h -53.19468 c -8.70281,55.46906 -17.06344,131.73749 -22.53187,219.81561 -3.91688,63.09281 -6.35157,132.23437 -6.35157,204.18468 0,6.53906 -0.005,13.02375 -0.0113,19.48219 -0.002,1.93125 -0.004,3.85031 -0.007,5.77406 -0.006,4.71281 -0.0122,9.40219 -0.0206,14.07 -0.004,1.89375 -0.006,3.79219 -0.009,5.6775 -0.006,3.13969 -0.0122,6.25031 -0.0188,9.36844 -0.0778,38.30437 -0.18844,75.02249 -0.12469,109.70249 10.99313,80.23969 18.58969,203.12162 20.37282,233.61092 0.23437,4.0032 -2.67282,7.4954 -6.64688,8.0279 -0.79031,0.1059 -1.56656,0.1865 -2.35406,0.2878 -0.37031,0.048 -0.735,0.083 -1.10438,0.1303 3.66563,25.0753 8.60532,45.1322 15.26719,59.3278 5.94094,12.6619 0.0216,42.0084 11.37656,44.8528 4.1925,1.0538 12.19781,1.0106 19.10813,1.0106 6.27843,0 15.10499,0.6535 18.60187,-1.2009 12.49312,-6.615 5.09812,-31.2844 11.46094,-44.2416 7.03968,-14.3062 12.19875,-34.6509 15.97781,-60.12 -0.13219,-0.017 -0.26344,-0.031 -0.39563,-0.049 -3.97406,-0.5335 -6.88125,-4.0247 -6.64687,-8.0278 1.59469,-27.2681 7.84125,-128.42725 17.00719,-206.89974 0.14437,-46.00032 -0.15094,-95.85844 -0.29438,-148.51687 z m -55.91718,-240.96093 c -23.99532,0 -20.69625,-20.45437 -20.69625,-78.02062 0,-57.56625 9.26625,-104.23312 20.69625,-104.23312 11.43,0 20.69625,46.66687 20.69625,104.23312 0,57.56625 -1.67813,78.02062 -20.69625,78.02062 z"
                 id="path22"
                 style="fill:#4d4d4d;stroke-width:0.9375" /><path
                 fill="#afb1b3"
                 d="m -283.72371,183.6793 c -6.97313,0 -16.81125,35.73 -26.25,95.81343 h 53.19469 c -9.75469,-60.18843 -19.88719,-95.81343 -26.94469,-95.81343 z"
                 id="path23"
                 style="stroke-width:0.9375" /></g></g></g></g></g></g></svg>
