<?xml version="1.0" encoding="UTF-8" standalone="no"?>
<!-- Created with Inkscape (http://www.inkscape.org/) -->

<svg
   version="1.1"
   id="svg1"
   width="44.65242"
   height="169.45044"
   viewBox="0 0 44.652421 169.45044"
   xml:space="preserve"
   xmlns="http://www.w3.org/2000/svg"
   xmlns:svg="http://www.w3.org/2000/svg"><defs
     id="defs1"><mask
       maskUnits="userSpaceOnUse"
       id="mask286"><g
         id="g316"
         transform="translate(1.4620617,-4.7517004)"
         clip-path="none"><rect
           style="fill:#e6e6e6;fill-opacity:1;fill-rule:evenodd;stroke-width:1.57484;stroke-linecap:round;stroke-linejoin:round;stroke-opacity:0.996078"
           id="rect286"
           width="92.411438"
           height="1.4740351"
           x="669.46484"
           y="486.07986"
           ry="6.0903835e-07"
           transform="matrix(0.78358785,0.621281,-0.85271677,0.52237353,0,0)" /><rect
           style="fill:#e6e6e6;fill-opacity:1;fill-rule:evenodd;stroke-width:1.57484;stroke-linecap:round;stroke-linejoin:round;stroke-opacity:0.996078"
           id="rect287"
           width="92.411438"
           height="1.4740351"
           x="684.6673"
           y="500.04987"
           ry="6.0903835e-07"
           transform="matrix(0.78358785,0.621281,-0.85271677,0.52237353,0,0)" /><rect
           style="fill:#e6e6e6;fill-opacity:1;fill-rule:evenodd;stroke-width:1.57484;stroke-linecap:round;stroke-linejoin:round;stroke-opacity:0.996078"
           id="rect288"
           width="92.411438"
           height="1.4740351"
           x="677.06604"
           y="493.06488"
           ry="6.0903835e-07"
           transform="matrix(0.78358785,0.621281,-0.85271677,0.52237353,0,0)" /><rect
           style="fill:#e6e6e6;fill-opacity:1;fill-rule:evenodd;stroke-width:1.57484;stroke-linecap:round;stroke-linejoin:round;stroke-opacity:0.996078"
           id="rect289"
           width="92.411438"
           height="1.4740351"
           x="661.86365"
           y="479.09488"
           ry="6.0903835e-07"
           transform="matrix(0.78358785,0.621281,-0.85271677,0.52237353,0,0)" /><rect
           style="fill:#e6e6e6;fill-opacity:1;fill-rule:evenodd;stroke-width:1.57484;stroke-linecap:round;stroke-linejoin:round;stroke-opacity:0.996078"
           id="rect290"
           width="92.411438"
           height="1.4740351"
           x="646.66119"
           y="465.12491"
           ry="6.0903835e-07"
           transform="matrix(0.78358785,0.621281,-0.85271677,0.52237353,0,0)" /><rect
           style="fill:#e6e6e6;fill-opacity:1;fill-rule:evenodd;stroke-width:1.57484;stroke-linecap:round;stroke-linejoin:round;stroke-opacity:0.996078"
           id="rect291"
           width="92.411438"
           height="1.4740351"
           x="654.26239"
           y="472.10989"
           ry="6.0903835e-07"
           transform="matrix(0.78358785,0.621281,-0.85271677,0.52237353,0,0)" /><rect
           style="fill:#e6e6e6;fill-opacity:1;fill-rule:evenodd;stroke-width:1.57484;stroke-linecap:round;stroke-linejoin:round;stroke-opacity:0.996078"
           id="rect292"
           width="92.411438"
           height="1.4740351"
           x="616.25629"
           y="437.18494"
           ry="6.0903835e-07"
           transform="matrix(0.78358785,0.621281,-0.85271677,0.52237353,0,0)" /><rect
           style="fill:#e6e6e6;fill-opacity:1;fill-rule:evenodd;stroke-width:1.57484;stroke-linecap:round;stroke-linejoin:round;stroke-opacity:0.996078"
           id="rect293"
           width="92.411438"
           height="1.4740351"
           x="639.06"
           y="458.13989"
           ry="6.0903835e-07"
           transform="matrix(0.78358785,0.621281,-0.85271677,0.52237353,0,0)" /><rect
           style="fill:#e6e6e6;fill-opacity:1;fill-rule:evenodd;stroke-width:1.57484;stroke-linecap:round;stroke-linejoin:round;stroke-opacity:0.996078"
           id="rect294"
           width="92.411438"
           height="1.4740351"
           x="623.85754"
           y="444.16992"
           ry="6.0903835e-07"
           transform="matrix(0.78358785,0.621281,-0.85271677,0.52237353,0,0)" /><rect
           style="fill:#e6e6e6;fill-opacity:1;fill-rule:evenodd;stroke-width:1.57484;stroke-linecap:round;stroke-linejoin:round;stroke-opacity:0.996078"
           id="rect295"
           width="92.411438"
           height="1.4740351"
           x="608.65509"
           y="430.19992"
           ry="6.0903835e-07"
           transform="matrix(0.78358785,0.621281,-0.85271677,0.52237353,0,0)" /><rect
           style="fill:#e6e6e6;fill-opacity:1;fill-rule:evenodd;stroke-width:1.57484;stroke-linecap:round;stroke-linejoin:round;stroke-opacity:0.996078"
           id="rect296"
           width="92.411438"
           height="1.4740351"
           x="631.45874"
           y="451.15491"
           ry="6.0903835e-07"
           transform="matrix(0.78358785,0.621281,-0.85271677,0.52237353,0,0)" /><rect
           style="fill:#e6e6e6;fill-opacity:1;fill-rule:evenodd;stroke-width:1.57484;stroke-linecap:round;stroke-linejoin:round;stroke-opacity:0.996078"
           id="rect297"
           width="92.411438"
           height="1.4740351"
           x="593.45264"
           y="416.22992"
           ry="6.0903835e-07"
           transform="matrix(0.78358785,0.621281,-0.85271677,0.52237353,0,0)" /><rect
           style="fill:#e6e6e6;fill-opacity:1;fill-rule:evenodd;stroke-width:1.57484;stroke-linecap:round;stroke-linejoin:round;stroke-opacity:0.996078"
           id="rect298"
           width="92.411438"
           height="1.4740351"
           x="578.25024"
           y="402.25992"
           ry="6.0903835e-07"
           transform="matrix(0.78358785,0.621281,-0.85271677,0.52237353,0,0)" /><rect
           style="fill:#e6e6e6;fill-opacity:1;fill-rule:evenodd;stroke-width:1.57484;stroke-linecap:round;stroke-linejoin:round;stroke-opacity:0.996078"
           id="rect299"
           width="92.411438"
           height="1.4740351"
           x="601.05389"
           y="423.21494"
           ry="6.0903835e-07"
           transform="matrix(0.78358785,0.621281,-0.85271677,0.52237353,0,0)" /><rect
           style="fill:#e6e6e6;fill-opacity:1;fill-rule:evenodd;stroke-width:1.57484;stroke-linecap:round;stroke-linejoin:round;stroke-opacity:0.996078"
           id="rect300"
           width="92.411438"
           height="1.4740351"
           x="585.85144"
           y="409.24493"
           ry="6.0903835e-07"
           transform="matrix(0.78358785,0.621281,-0.85271677,0.52237353,0,0)" /><rect
           style="fill:#e6e6e6;fill-opacity:1;fill-rule:evenodd;stroke-width:1.57484;stroke-linecap:round;stroke-linejoin:round;stroke-opacity:0.996078"
           id="rect301"
           width="92.411438"
           height="1.4740351"
           x="570.64899"
           y="395.27493"
           ry="6.0903835e-07"
           transform="matrix(0.78358785,0.621281,-0.85271677,0.52237353,0,0)" /><rect
           style="fill:#e6e6e6;fill-opacity:1;fill-rule:evenodd;stroke-width:1.57484;stroke-linecap:round;stroke-linejoin:round;stroke-opacity:0.996078"
           id="rect302"
           width="92.411438"
           height="1.4740351"
           x="555.44653"
           y="381.30496"
           ry="6.0903835e-07"
           transform="matrix(0.78358785,0.621281,-0.85271677,0.52237353,0,0)" /><rect
           style="fill:#e6e6e6;fill-opacity:1;fill-rule:evenodd;stroke-width:1.57484;stroke-linecap:round;stroke-linejoin:round;stroke-opacity:0.996078"
           id="rect303"
           width="92.411438"
           height="1.4740351"
           x="563.04779"
           y="388.28995"
           ry="6.0903835e-07"
           transform="matrix(0.78358785,0.621281,-0.85271677,0.52237353,0,0)" /><rect
           style="fill:#e6e6e6;fill-opacity:1;fill-rule:evenodd;stroke-width:1.57484;stroke-linecap:round;stroke-linejoin:round;stroke-opacity:0.996078"
           id="rect304"
           width="92.411438"
           height="1.4740351"
           x="532.64288"
           y="360.34998"
           ry="6.0903835e-07"
           transform="matrix(0.78358785,0.621281,-0.85271677,0.52237353,0,0)" /><rect
           style="fill:#e6e6e6;fill-opacity:1;fill-rule:evenodd;stroke-width:1.57484;stroke-linecap:round;stroke-linejoin:round;stroke-opacity:0.996078"
           id="rect305"
           width="92.411438"
           height="1.4740351"
           x="547.84534"
           y="374.31995"
           ry="6.0903835e-07"
           transform="matrix(0.78358785,0.621281,-0.85271677,0.52237353,0,0)" /><rect
           style="fill:#e6e6e6;fill-opacity:1;fill-rule:evenodd;stroke-width:1.57484;stroke-linecap:round;stroke-linejoin:round;stroke-opacity:0.996078"
           id="rect306"
           width="92.411438"
           height="1.4740351"
           x="540.24414"
           y="367.33496"
           ry="6.0903835e-07"
           transform="matrix(0.78358785,0.621281,-0.85271677,0.52237353,0,0)" /><rect
           style="fill:#e6e6e6;fill-opacity:1;fill-rule:evenodd;stroke-width:1.57484;stroke-linecap:round;stroke-linejoin:round;stroke-opacity:0.996078"
           id="rect307"
           width="92.411438"
           height="1.4740351"
           x="525.04169"
           y="353.36496"
           ry="6.0903835e-07"
           transform="matrix(0.78358785,0.621281,-0.85271677,0.52237353,0,0)" /><rect
           style="fill:#e6e6e6;fill-opacity:1;fill-rule:evenodd;stroke-width:1.57484;stroke-linecap:round;stroke-linejoin:round;stroke-opacity:0.996078"
           id="rect308"
           width="92.411438"
           height="1.4740351"
           x="715.0722"
           y="527.98981"
           ry="6.0903835e-07"
           transform="matrix(0.78358785,0.621281,-0.85271677,0.52237353,0,0)" /><rect
           style="fill:#e6e6e6;fill-opacity:1;fill-rule:evenodd;stroke-width:1.57484;stroke-linecap:round;stroke-linejoin:round;stroke-opacity:0.996078"
           id="rect309"
           width="92.411438"
           height="1.4740351"
           x="730.2746"
           y="541.95984"
           ry="6.0903835e-07"
           transform="matrix(0.78358785,0.621281,-0.85271677,0.52237353,0,0)" /><rect
           style="fill:#e6e6e6;fill-opacity:1;fill-rule:evenodd;stroke-width:1.57484;stroke-linecap:round;stroke-linejoin:round;stroke-opacity:0.996078"
           id="rect310"
           width="92.411438"
           height="1.4740351"
           x="722.6734"
           y="534.97485"
           ry="6.0903835e-07"
           transform="matrix(0.78358785,0.621281,-0.85271677,0.52237353,0,0)" /><rect
           style="fill:#e6e6e6;fill-opacity:1;fill-rule:evenodd;stroke-width:1.57484;stroke-linecap:round;stroke-linejoin:round;stroke-opacity:0.996078"
           id="rect311"
           width="92.411438"
           height="1.4740351"
           x="707.47095"
           y="521.00488"
           ry="6.0903835e-07"
           transform="matrix(0.78358785,0.621281,-0.85271677,0.52237353,0,0)" /><rect
           style="fill:#e6e6e6;fill-opacity:1;fill-rule:evenodd;stroke-width:1.57484;stroke-linecap:round;stroke-linejoin:round;stroke-opacity:0.996078"
           id="rect312"
           width="92.411438"
           height="1.4740351"
           x="692.26849"
           y="507.03485"
           ry="6.0903835e-07"
           transform="matrix(0.78358785,0.621281,-0.85271677,0.52237353,0,0)" /><rect
           style="fill:#e6e6e6;fill-opacity:1;fill-rule:evenodd;stroke-width:1.57484;stroke-linecap:round;stroke-linejoin:round;stroke-opacity:0.996078"
           id="rect313"
           width="92.411438"
           height="1.4740351"
           x="699.86975"
           y="514.01984"
           ry="6.0903835e-07"
           transform="matrix(0.78358785,0.621281,-0.85271677,0.52237353,0,0)" /><rect
           style="fill:#e6e6e6;fill-opacity:1;fill-rule:evenodd;stroke-width:1.57484;stroke-linecap:round;stroke-linejoin:round;stroke-opacity:0.996078"
           id="rect314"
           width="92.411438"
           height="1.4740351"
           x="517.44049"
           y="346.37997"
           ry="6.0903835e-07"
           transform="matrix(0.78358785,0.621281,-0.85271677,0.52237353,0,0)" /><rect
           style="fill:#e6e6e6;fill-opacity:1;fill-rule:evenodd;stroke-width:1.57484;stroke-linecap:round;stroke-linejoin:round;stroke-opacity:0.996078"
           id="rect315"
           width="92.411438"
           height="1.4740351"
           x="509.83923"
           y="339.39499"
           ry="6.0903835e-07"
           transform="matrix(0.78358785,0.621281,-0.85271677,0.52237353,0,0)" /><rect
           style="fill:#e6e6e6;fill-opacity:1;fill-rule:evenodd;stroke-width:1.57484;stroke-linecap:round;stroke-linejoin:round;stroke-opacity:0.996078"
           id="rect316"
           width="92.411438"
           height="1.4740351"
           x="502.23804"
           y="332.40997"
           ry="6.0903835e-07"
           transform="matrix(0.78358785,0.621281,-0.85271677,0.52237353,0,0)" /></g></mask><clipPath
       clipPathUnits="userSpaceOnUse"
       id="clipPath333"><path
         id="path333"
         style="fill:#181c57;fill-opacity:1;fill-rule:evenodd;stroke-width:0.944882;stroke-linecap:round;stroke-linejoin:round;stroke-opacity:0.996078"
         d="m -10.600629,457.9796 11.56329,-1.73167 10.440739,1.73167 v 0 11.7696 0 l -10.440739,1.33205 -11.56329,-1.33205 v 0 z"
         mask="none" /></clipPath></defs><g
     id="g334"
     transform="matrix(0.63600001,0,0,0.63600001,1.0756106,-299.45849)"><path
       id="path255"
       style="fill:#181c57;fill-rule:evenodd;stroke-width:0.944882;stroke-linecap:round;stroke-linejoin:round;stroke-opacity:0.996078"
       d="m 24.625897,483.8623 15.01537,-0.0522 28.87572,225.69922 v 0 l -35.38958,27.67474 -34.8186197,-27.67474 v 0 z"
       clip-path="none" /><path
       id="rect1"
       style="fill:#ffffff;fill-rule:evenodd;stroke-width:0.944882;stroke-linecap:round;stroke-linejoin:round;stroke-opacity:0.996078"
       d="m 138.69092,515.66214 15.01537,-0.0522 28.87572,225.69922 v 0 l -35.38958,27.67474 -34.81862,-27.67474 v 0 z"
       clip-path="none"
       mask="url(#mask286)"
       transform="translate(-114.06502,-31.705709)" /><path
       id="path316"
       style="fill:#181c57;fill-rule:evenodd;stroke-width:0.944882;stroke-linecap:round;stroke-linejoin:round;stroke-opacity:0.996078"
       d="m 24.625897,483.8623 15.01537,-0.0522 28.87572,225.69922 v 0 l -35.38958,27.67474 -34.8186197,-27.67474 v 0 z"
       clip-path="none" /><path
       id="path317"
       style="fill:#ffffff;fill-rule:evenodd;stroke-width:0.944882;stroke-linecap:round;stroke-linejoin:round;stroke-opacity:0.996078"
       d="m 138.69092,515.66214 15.01537,-0.0522 28.87572,225.69922 v 0 l -35.38958,27.67474 -34.81862,-27.67474 v 0 z"
       clip-path="none"
       mask="url(#mask286)"
       transform="translate(-114.06502,-31.705709)" /><g
       id="g333"
       transform="translate(-32.59018,10.069789)"><path
         id="path321"
         style="fill:#181c57;fill-opacity:1;fill-rule:evenodd;stroke-width:0.944882;stroke-linecap:round;stroke-linejoin:round;stroke-opacity:0.996078"
         d="m 53.870749,462.50858 11.56329,-1.73167 10.440739,1.73167 v 0 11.7696 0 l -10.440739,1.33205 -11.56329,-1.33205 v 0 z" /><g
         id="g323"
         transform="translate(64.497398,4.5425735)"
         mask="none"
         clip-path="url(#clipPath333)"><rect
           style="fill:#e0e1f3;fill-opacity:1;fill-rule:evenodd;stroke-width:0.497488;stroke-linecap:round;stroke-linejoin:round;stroke-opacity:0.996078"
           id="rect318"
           width="31.215017"
           height="1.7022574"
           x="-195.63353"
           y="432.74246"
           ry="1.9426371e-07"
           transform="rotate(-22.556371)" /><rect
           style="fill:#e0e1f3;fill-opacity:1;fill-rule:evenodd;stroke-width:0.497488;stroke-linecap:round;stroke-linejoin:round;stroke-opacity:0.996078"
           id="rect319"
           width="31.215017"
           height="1.7022574"
           x="-193.5304"
           y="427.67914"
           ry="1.9426371e-07"
           transform="rotate(-22.556371)" /><rect
           style="fill:#e0e1f3;fill-opacity:1;fill-rule:evenodd;stroke-width:0.497488;stroke-linecap:round;stroke-linejoin:round;stroke-opacity:0.996078"
           id="rect320"
           width="31.215017"
           height="1.7022574"
           x="-191.42726"
           y="422.61578"
           ry="1.9426371e-07"
           transform="rotate(-22.556371)" /></g></g></g></svg>
