<?xml version="1.0" encoding="UTF-8" standalone="no"?>
<!-- Created with Inkscape (http://www.inkscape.org/) -->

<svg
   version="1.1"
   id="svg1"
   width="133.52502"
   height="133.52507"
   viewBox="0 0 133.52503 133.52507"
   xml:space="preserve"
   xmlns="http://www.w3.org/2000/svg"
   xmlns:svg="http://www.w3.org/2000/svg"><defs
     id="defs1" /><g
     style="fill:none"
     id="g2"
     transform="matrix(3.8945068,-2.752056,2.752056,3.8945068,-39.582534,48.483315)"><circle
       cx="16"
       cy="16"
       r="14"
       fill="#0769ad"
       id="circle1" /><path
       d="m 22.6573,13.4211 c 1.257,0 2.4079,-0.4192 3.2977,-1.1145 -0.9238,1.2172 -2.4543,2.013 -4.1861,2.013 -2.8212,0 -5.1082,-2.1119 -5.1082,-4.71704 0,-1.44446 0.7031,-2.73729 1.8105,-3.60256 -0.5811,0.76568 -0.9221,1.6981 -0.9221,2.70407 0,2.60513 2.287,4.71703 5.1082,4.71703 z"
       fill="#78cff5"
       id="path1-2" /><path
       d="m 25.9064,16.6586 c -1.3552,1.063 -3.1096,1.7042 -5.0259,1.7042 -4.2931,0 -7.7734,-3.2181 -7.7734,-7.1879 0,-1.53968 0.5236,-2.96631 1.415,-4.13596 -1.6808,1.31848 -2.7476,3.28586 -2.7476,5.48366 0,3.9698 3.4803,7.188 7.7734,7.188 2.6281,0 4.9515,-1.2059 6.3585,-3.052 z"
       fill="#78cff5"
       id="path2-2" /><path
       d="m 26,20.7701 c -1.9311,1.8428 -4.6063,2.9837 -7.5625,2.9837 -5.8878,0 -10.66072,-4.5255 -10.66072,-10.108 0,-1.769 0.47925,-3.4318 1.32135,-4.87813 C 7.18322,10.595 6,13.1125 6,15.892 6,21.4745 10.7729,26 16.6607,26 20.6827,26 24.1846,23.8881 26,20.7701 Z"
       fill="#78cff5"
       id="path3-8" /></g></svg>
