<?xml version="1.0" encoding="UTF-8" standalone="no"?>
<!-- Created with Inkscape (http://www.inkscape.org/) -->

<svg
   version="1.1"
   id="svg1"
   width="102.97705"
   height="195.14758"
   viewBox="0 0 102.97705 195.14758"
   xml:space="preserve"
   xmlns="http://www.w3.org/2000/svg"
   xmlns:svg="http://www.w3.org/2000/svg"><defs
     id="defs1" /><g
     id="g7"
     style="fill:#df4f4f"
     transform="matrix(0.42183712,0.42116684,-0.42116684,0.42183712,50.246997,-0.36959201)"><path
       d="M 0.43860078,0.43823749 219.30039,232.26587 c 0,0 7.45622,5.25885 13.15803,-0.87647 5.70181,-6.13533 1.3158,-12.27065 1.3158,-12.27065 z"
       id="path1-0" /><path
       d="M 69.737525,22.350112 236.40582,202.02749 c 0,0 7.45622,5.25884 13.15803,-0.87648 5.70181,-6.13533 1.3158,-12.27065 1.3158,-12.27065 z"
       id="path2-6" /><path
       d="M 21.052838,69.241524 187.72114,248.9189 c 0,0 7.45621,5.25885 13.15802,-0.87648 5.70181,-6.13532 1.3158,-12.27065 1.3158,-12.27065 z"
       id="path3-2" /><path
       d="M 128.32077,41.194324 244.76195,166.72418 c 0,0 5.20922,3.67404 9.19273,-0.61234 3.98351,-4.28639 0.91927,-8.57278 0.91927,-8.57278 z"
       id="path4-6" /><path
       d="M 37.091803,123.58297 153.53299,249.11282 c 0,0 5.20921,3.67405 9.19273,-0.61234 3.98351,-4.28638 0.91927,-8.57277 0.91927,-8.57277 z"
       id="path5-1" /><path
       d="m 188.15974,68.365049 52.77506,57.067161 c 0,0 2.57683,1.72156 4.54735,-0.28693 1.97051,-2.00849 0.45473,-4.01699 0.45473,-4.01699 z"
       id="path6-8" /><path
       d="m 66.228719,181.43032 52.775071,57.06716 c 0,0 2.57682,1.72156 4.54734,-0.28693 1.97051,-2.00849 0.45473,-4.01698 0.45473,-4.01698 z"
       id="path7" /></g></svg>
