<?xml version="1.0" encoding="UTF-8" standalone="no"?>
<!-- Created with Inkscape (http://www.inkscape.org/) -->

<svg
   width="3.308531mm"
   height="10.759037mm"
   viewBox="0 0 11.723141 38.12257"
   id="svg2"
   version="1.1"
   xml:space="preserve"
   sodipodi:docname="missile.svg"
   inkscape:version="1.4.2 (1:1.4.2+202505120737+ebf0e940d0)"
   xmlns:inkscape="http://www.inkscape.org/namespaces/inkscape"
   xmlns:sodipodi="http://sodipodi.sourceforge.net/DTD/sodipodi-0.dtd"
   xmlns="http://www.w3.org/2000/svg"
   xmlns:svg="http://www.w3.org/2000/svg"
   xmlns:rdf="http://www.w3.org/1999/02/22-rdf-syntax-ns#"
   xmlns:cc="http://creativecommons.org/ns#"
   xmlns:dc="http://purl.org/dc/elements/1.1/"><sodipodi:namedview
     id="namedview1"
     pagecolor="#ffffff"
     bordercolor="#000000"
     borderopacity="0.25"
     inkscape:showpageshadow="2"
     inkscape:pageopacity="0.0"
     inkscape:pagecheckerboard="0"
     inkscape:deskcolor="#d1d1d1"
     inkscape:document-units="mm"
     inkscape:zoom="10.86498"
     inkscape:cx="33.410093"
     inkscape:cy="41.46349"
     inkscape:current-layer="svg2" /><defs
     id="defs4">
	
	
	
</defs><metadata
     id="metadata7"><rdf:RDF><cc:Work
         rdf:about=""><dc:format>image/svg+xml</dc:format><dc:type
           rdf:resource="http://purl.org/dc/dcmitype/StillImage" /><dc:title /></cc:Work></rdf:RDF></metadata><g
     id="g1"
     transform="matrix(0.35769632,0,0,0.35769632,-156.15414,-121.83707)"><polygon
       fill="#4a4d4e"
       points="581.527,1103.533 586.618,1060.254 522.477,1060.254 527.923,1103.533 "
       id="polygon1"
       transform="matrix(0.42283297,0,0,0.42283297,51.804699,325.93114)" /><polygon
       fill="#4a4d4e"
       points="672.739,1103.533 677.831,1060.254 613.688,1060.254 619.135,1103.533 "
       id="polygon2"
       transform="matrix(0.42283297,0,0,0.42283297,51.804699,325.93114)" /><polygon
       fill="#7a7c7f"
       points="586.618,1060.254 590.82,1060.254 590.82,1050.167 521.858,1050.167 516.625,1060.254 522.477,1060.254 "
       id="polygon3"
       transform="matrix(0.42283297,0,0,0.42283297,51.804699,325.93114)" /><polygon
       fill="#7a7c7f"
       points="613.688,1060.254 677.831,1060.254 683.375,1060.254 678.142,1050.167 609.787,1050.167 609.787,1060.254 "
       id="polygon4"
       transform="matrix(0.42283297,0,0,0.42283297,51.804699,325.93114)" /><polygon
       fill="#3e606f"
       points="882.549,1005.772 801.102,950.241 801.102,1025.821 721.999,1050.167 703.201,1042.269 702.955,1050.167 687.706,1050.167 678.142,1050.167 683.375,1060.254 729.935,1150 882.549,1108.912 "
       id="polygon5"
       transform="matrix(0.42283297,0,0,0.42283297,51.804699,325.93114)" /><polygon
       fill="#3e606f"
       points="521.858,1050.167 512.901,1050.167 500.893,1050.167 500.542,1040.696 478,1050.167 398.897,1025.821 398.897,950.241 317.451,1005.772 317.451,1108.912 470.064,1150 516.625,1060.254 "
       id="polygon6"
       transform="matrix(0.42283297,0,0,0.42283297,51.804699,325.93114)" /><polygon
       fill="#627b89"
       points="719.381,523.371 708.884,860.007 740.988,883.71 987.58,820.396 987.58,696.743 "
       id="polygon7"
       transform="matrix(0.42283297,0,0,0.42283297,51.804699,325.93114)" /><polygon
       fill="#627b89"
       points="212.42,696.743 212.42,820.396 459.012,883.71 493.775,858.044 481.358,522.893 "
       id="polygon8"
       transform="matrix(0.42283297,0,0,0.42283297,51.804699,325.93114)" /><path
       fill="#cbccce"
       d="m 326.50617,491.04023 c 0.44609,27.18731 0.50021,53.21014 -0.0672,69.56532 -5.59239,77.25243 -32.18097,76.86765 -39.04313,0 0,0 -0.88964,-33.43255 -1.39915,-71.10782 l -31.86131,25.0389 1.2038,32.49091 5.25032,141.71289 4.99916,-3.69091 0.0127,0.0351 24.86512,69.53742 -18.63214,7.8279 -8.38308,3.5222 0.14841,4.00465 h 5.07738 3.78731 29.15941 2.44651 l 2.18309,-3.99704 2.31374,3.99704 h 1.07611 28.90275 4.04397 6.44736 l 0.10444,-3.33953 -9.96617,-4.18689 -18.63172,-7.82791 24.8647,-69.53742 0.0127,-0.0351 6.12389,4.52093 4.43806,-142.34123 1.1074,-35.51374 z"
       id="path8"
       style="stroke-width:0.422833" /><g
       id="g9"
       transform="matrix(0.42283297,0,0,0.42283297,51.804699,325.93114)">
		<path
   fill="#1b434c"
   d="m 649.669,390.483 c -1.831,-111.584 -6.462,-231.471 -11.08,-254.604 -0.03,-0.091 -0.03,-0.182 -0.061,-0.273 h -79.02 c -1.365,6.006 -2.427,12.103 -3.094,18.2 -4.084,36.666 -3.804,140.283 -2.551,233.028 1.205,89.102 3.309,168.17 3.309,168.17 16.229,181.792 79.111,182.702 92.337,0 1.342,-38.679 1.215,-100.222 0.16,-164.521 z m -47.899,18.244 c -7.895,0 -15.068,-10.857 -20.404,-28.552 -5.802,-19.238 -9.43,-46.561 -9.43,-76.896 0,-58.237 13.357,-105.448 29.834,-105.448 16.477,0 29.834,47.211 29.834,105.448 0,30.334 -3.63,57.658 -9.431,76.896 -5.336,17.695 -12.509,28.552 -20.403,28.552 z"
   id="path9" />
	</g><polygon
       fill="#8aabbf"
       points="801.102,928.094 740.988,883.71 708.884,860.007 694.402,849.315 694.372,849.398 635.567,1013.854 679.631,1032.367 703.201,1042.269 721.999,1050.167 801.102,1025.821 801.102,950.241 "
       id="polygon9"
       transform="matrix(0.42283297,0,0,0.42283297,51.804699,325.93114)" /><polygon
       fill="#8aabbf"
       points="564.433,1013.854 505.627,849.398 505.598,849.315 493.775,858.044 459.012,883.71 398.897,928.094 398.897,950.241 398.897,1025.821 478,1050.167 500.542,1040.696 520.368,1032.367 "
       id="polygon10"
       transform="matrix(0.42283297,0,0,0.42283297,51.804699,325.93114)" /><path
       fill="#7a7c7f"
       d="m 306.42964,348.01105 c -0.71839,-1.23128 -2.47526,-1.25708 -3.21945,-0.0385 -3.45032,5.64355 -11.37674,19.75222 -14.82706,35.29767 h 33.41226 c -2.47526,-12.21057 -11.67188,-28.88457 -15.36575,-35.2592 z"
       id="path10"
       style="stroke-width:0.422833" /><path
       fill="#6fadae"
       d="m 297.09983,484.82331 h 18.30528 c 1.32432,-4.93573 2.33108,-10.93869 2.90867,-17.60761 h -24.12262 c 0.57759,6.66892 1.58478,12.67188 2.90867,17.60761 z"
       id="path11"
       style="stroke-width:0.422833" /><path
       fill="#6fadae"
       d="m 293.63767,454.1675 c 0,3.81987 0.13912,7.52304 0.39493,11.06047 h 24.44017 c 0.25581,-3.53743 0.39492,-7.2406 0.39492,-11.06047 0,-2.22452 -0.0478,-4.40972 -0.13657,-6.54715 h -24.95645 c -0.0892,2.13743 -0.137,4.3222 -0.137,6.54715 z"
       id="path12"
       style="stroke-width:0.422833" /><path
       fill="#6fadae"
       d="m 306.2529,409.58061 c -4.13235,0 -7.80043,7.02325 -10.10148,17.87653 h 20.20253 c -2.30105,-10.85328 -5.96871,-17.87653 -10.10105,-17.87653 z"
       id="path13"
       style="stroke-width:0.422833" /><path
       fill="#6fadae"
       d="m 316.75057,429.44488 h -20.99619 c -0.90952,4.81691 -1.56026,10.29514 -1.8833,16.18774 h 24.76236 c -0.32262,-5.8926 -0.97293,-11.37083 -1.88287,-16.18774 z"
       id="path14"
       style="stroke-width:0.422833" /><path
       fill="#6fadae"
       d="m 306.2529,498.75439 c 3.31839,0 6.33403,-4.53911 8.58646,-11.94292 h -17.17251 c 2.25158,7.40339 5.26765,11.94292 8.58605,11.94292 z"
       id="path15"
       style="stroke-width:0.422833" /><path
       fill="#95bfc8"
       d="m 316.35395,427.45672 h -20.20253 c -0.13743,0.6482 -0.26893,1.3129 -0.39662,1.98816 h 20.99619 c -0.12812,-0.67484 -0.25962,-1.33954 -0.39704,-1.98816 z"
       id="path16"
       style="stroke-width:0.422833" /><path
       fill="#95bfc8"
       d="m 293.8715,445.63262 c -0.0364,0.65792 -0.0693,1.32008 -0.0973,1.98816 h 24.95645 c -0.0279,-0.66808 -0.0609,-1.32981 -0.0973,-1.98816 z"
       id="path17"
       style="stroke-width:0.422833" /><path
       fill="#95bfc8"
       d="m 294.19158,467.2157 h 24.12263 c 0.0571,-0.65666 0.11036,-1.31881 0.15856,-1.98816 H 294.0326 c 0.0486,0.66977 0.1019,1.3315 0.15898,1.98816 z"
       id="path18"
       style="stroke-width:0.422833" /><path
       fill="#95bfc8"
       d="m 297.62541,486.68124 c 0.0135,0.0444 0.0275,0.0858 0.041,0.12981 h 17.17251 c 0.0135,-0.0444 0.0275,-0.0854 0.041,-0.12981 0.18055,-0.59915 0.35475,-1.22241 0.52515,-1.85793 h -18.30528 c 0.17082,0.63552 0.34503,1.25878 0.52558,1.85793 z"
       id="path19"
       style="stroke-width:0.422833" /></g><path
     style="fill:#333333;stroke-width:0.885828"
     d="m 29.539357,20.142976 c -0.185945,4.88e-4 -0.358542,0.09697 -0.456331,0.255263 -1.433161,2.319094 -2.18694,4.985914 -2.179831,7.712204 l 0.01226,4.675493 -3.009887,2.834249 c -0.108521,0.102212 -0.169573,0.244384 -0.169224,0.393216 l 0.01199,4.588922 c 4.48e-4,0.170882 0.082,0.3313 0.219759,0.432365 0.137675,0.101064 0.31533,0.130724 0.478382,0.07992 l 2.488745,-0.775419 0.01239,4.722775 -2.899863,1.566184 c -0.174527,0.09423 -0.282922,0.276691 -0.282444,0.474896 l 0.0047,1.823176 c 4.49e-4,0.170882 0.082,0.3313 0.21976,0.432364 0.137716,0.101106 0.31533,0.130725 0.478381,0.07992 l 2.488746,-0.775419 0.01453,5.538523 -1.915203,1.210831 c -0.156648,0.09907 -0.251094,0.27121 -0.250567,0.456276 l 0.005,1.860121 c 4.58e-4,0.142681 0.05751,0.279397 0.1587,0.380055 0.101187,0.100658 0.2382,0.156994 0.380839,0.156662 l 8.578251,-0.0225 c 0.148622,-3.9e-4 0.283028,-0.06099 0.380138,-0.158617 0.09711,-0.09762 0.157052,-0.232301 0.156621,-0.380965 l -0.0049,-1.860205 c -4.85e-4,-0.184941 -0.09604,-0.356788 -0.252915,-0.454914 l -1.921613,-1.200851 -0.01453,-5.538523 2.492779,0.762353 c 0.163315,0.04995 0.340772,0.0194 0.477998,-0.08247 0.02172,-0.01612 0.04209,-0.03375 0.06083,-0.05259 0.09987,-0.100391 0.156997,-0.237197 0.15662,-0.380965 l -0.0048,-1.823218 c -5.2e-4,-0.198163 -0.109996,-0.380098 -0.284848,-0.473324 l -2.908039,-1.550951 -0.01243,-4.722648 2.492821,0.762311 c 0.163357,0.04999 0.340771,0.0194 0.477997,-0.08247 0.02172,-0.01612 0.04209,-0.03375 0.06083,-0.05259 0.09987,-0.10039 0.156998,-0.237196 0.156621,-0.380965 l -0.01199,-4.588922 c -4.74e-4,-0.14879 -0.0624,-0.290765 -0.171327,-0.392281 l -3.024797,-2.81842 -0.01226,-4.675493 v 0 c -0.0072,-2.726164 -0.774909,-5.388993 -2.220216,-7.700621 -0.09862,-0.157612 -0.271676,-0.253228 -0.457705,-0.25274 z m -1.559639,8.082011 3.16157,-0.0083 0.03653,13.910201 -3.161654,0.0082 z m 3.200963,14.978039 0.02286,8.716245 -3.161738,0.0083 -0.02282,-8.716287 z m -6.358037,-3.332955 -0.0095,-3.626434 2.106194,-1.983277 0.01299,4.952402 z m 0.02179,8.323894 -0.002,-0.772149 2.10841,-1.138741 0.0032,1.25354 z m 1.038337,7.969127 1.092193,-0.690499 0.0045,1.712378 -1.094081,0.0029 z m 4.291771,1.013498 -0.0044,-1.673004 c -7.8e-4,-0.297161 -0.242295,-0.537413 -0.539456,-0.536634 -0.297119,8.21e-4 -0.537413,0.242295 -0.536675,0.539498 l 0.0044,1.673005 -1.042782,0.0027 -0.01092,-4.17837 3.161738,-0.0083 0.01096,4.178328 z m 3.210349,-1.033218 0.0026,1.024833 -1.094081,0.0029 -0.0045,-1.71242 z m 0.994449,-8.746571 0.002,0.772149 -2.113134,-0.64619 -0.0033,-1.253582 z m -0.0294,-11.178137 0.0095,3.626434 -2.113134,-0.64619 -0.01299,-4.952403 z m -3.246619,-9.07805 -3.09111,0.0081 c 0.128701,-1.884657 0.648924,-3.719126 1.531386,-5.389813 0.891214,1.665951 1.421096,3.497791 1.559724,5.381705 z"
     id="path8-6" /><g
     id="g2"
     inkscape:export-filename="missile.svg"
     inkscape:export-xdpi="96"
     inkscape:export-ydpi="96"><g
       id="g6"
       transform="matrix(0.04173211,-0.04195161,0.04195161,0.04173211,24.048628,33.806149)"
       style="stroke-width:14.96998271;fill:#808080">
	<polygon
   style="fill:#808080;stroke-width:14.96998271"
   points="9.094,400.398 31.318,378.175 73.559,387.801 35.028,426.332 "
   id="polygon1-3" />
	<polygon
   style="fill:#808080;stroke-width:14.96998271"
   points="111.605,502.909 85.671,476.975 124.202,438.444 133.829,480.673 "
   id="polygon2-6" />
	<polygon
   style="fill:#808080;stroke-width:14.96998271"
   points="228.98,409.843 202.646,359.988 233.126,329.52 250.767,388.056 "
   id="polygon3-7" />
	<polygon
   style="fill:#808080;stroke-width:14.96998271"
   points="102.16,283.023 123.947,261.236 182.483,278.877 152.003,309.357 "
   id="polygon4-5" />
	<polygon
   style="fill:#808080;stroke-width:14.96998271"
   points="201.628,183.544 256.466,128.718 330.217,131.131 251.483,209.878 "
   id="polygon5-3" />
	<polygon
   style="fill:#808080;stroke-width:14.96998271"
   points="328.447,310.376 302.113,260.521 380.873,181.762 383.285,255.538 "
   id="polygon6-5" />
</g><path
       style="fill:#999999;stroke-width:0.88582671"
       d="m 47.633729,50.117286 -4.237995,0.01112 -0.0085,-3.224417 -0.01722,-6.564486 -0.0067,-2.55068 -0.01515,-5.774093 -0.01778,-6.589338 5.01e-4,-5.04e-4 -0.01338,-4.909137 c -3.67e-4,-0.140003 0.0013,-0.281057 0.0055,-0.420569 l 4.224814,-0.01112 c 0.0049,0.139531 0.0073,0.280533 0.0077,0.420535 l 0.01288,4.908636 0.01729,6.590847 0.01565,5.773589 0.0062,2.550179 0.01772,6.564987 z"
       id="path6" /><path
       style="fill:#de8787;stroke-width:0.88582671"
       d="m 45.417088,13.08782 c 0.69486,1.112224 1.228144,2.310607 1.588582,3.55865 0.321008,1.114753 0.505129,2.269365 0.542169,3.437584 l -4.224772,0.01108 c 0.06806,-2.477318 0.789191,-4.895007 2.094021,-7.007316 z"
       id="path7" /><path
       style="fill:#808080;stroke-width:0.885828;fill-opacity:1"
       d="m 45.468507,32.547757 c 0.148622,-3.9e-4 0.283028,-0.06099 0.380138,-0.158617 0.09711,-0.09762 0.15701,-0.232259 0.15662,-0.380965 l -0.01729,-6.590762 C 45.987199,25.120252 45.745683,24.88 45.448522,24.880779 c -0.297202,8.22e-4 -0.537454,0.242337 -0.536675,0.539498 l 0.01729,6.590763 c 7.37e-4,0.297202 0.242253,0.537454 0.539372,0.536717 z"
       id="path9-2" /><path
       style="fill:#808080;stroke-width:0.885828;fill-opacity:1"
       d="m 45.490775,41.053161 c 0.148622,-3.9e-4 0.282986,-0.06095 0.380138,-0.158617 0.09711,-0.09762 0.157052,-0.232301 0.15662,-0.380965 l -0.0084,-3.231865 c -7.8e-4,-0.297161 -0.242295,-0.537413 -0.539456,-0.536633 -0.297119,8.21e-4 -0.537413,0.242294 -0.536675,0.539497 l 0.0084,3.231866 c 6.54e-4,0.297203 0.242212,0.537496 0.539373,0.536717 z"
       id="path10-9" /></g></svg>
