<?xml version="1.0" encoding="UTF-8" standalone="no"?>
<!-- Created with Inkscape (http://www.inkscape.org/) -->

<svg
   version="1.1"
   id="svg1"
   width="153.07816"
   height="136.64069"
   viewBox="0 0 153.07816 136.64069"
   xml:space="preserve"
   xmlns="http://www.w3.org/2000/svg"
   xmlns:svg="http://www.w3.org/2000/svg"><defs
     id="defs1" /><g
     id="g4"
     transform="translate(657.20988,-141.65323)"><path
       d="m -505.58473,209.98887 c 0,-9.94822 -12.45823,-19.37607 -31.55881,-25.22256 4.40783,-19.4679 2.44879,-34.95651 -6.1832,-39.91532 -1.98964,-1.16318 -4.316,-1.71415 -6.85662,-1.71415 v 6.82601 c 1.40806,0 2.54062,0.27548 3.48953,0.79585 4.16295,2.38758 5.96893,11.47872 4.56088,23.1717 -0.33671,2.87733 -0.88769,5.90771 -1.56111,8.99931 -5.99954,-1.46927 -12.55006,-2.60184 -19.43729,-3.33648 -4.13234,-5.66283 -8.41772,-10.80529 -12.73372,-15.30495 9.97883,-9.2748 19.34546,-14.35604 25.71232,-14.35604 v -6.82601 c -8.41772,0 -19.43729,5.99954 -30.5793,16.40691 -11.142,-10.34615 -22.16157,-16.28447 -30.57929,-16.28447 v 6.82601 c 6.33625,0 15.73349,5.05063 25.71232,14.26421 -4.28539,4.49966 -8.57077,9.61151 -12.64189,15.27434 -6.91784,0.73464 -13.46836,1.86721 -19.4679,3.36709 -0.70403,-3.06099 -1.2244,-6.03015 -1.59172,-8.87687 -1.43866,-11.69298 0.33671,-20.78412 4.46905,-23.20231 0.9183,-0.55098 2.11208,-0.79585 3.52014,-0.79585 v -6.82601 c -2.57123,0 -4.89759,0.55097 -6.91784,1.71415 -8.60138,4.95881 -10.52981,20.41681 -6.09137,39.82349 -19.03936,5.8771 -31.43638,15.27434 -31.43638,25.19195 0,9.94822 12.45824,19.37607 31.55882,25.22256 -4.40783,19.4679 -2.44879,34.95652 6.1832,39.91532 1.98964,1.16318 4.316,1.71416 6.88723,1.71416 8.41772,0 19.43729,-5.99955 30.57929,-16.40691 11.14201,10.34614 22.16158,16.28447 30.5793,16.28447 2.57123,0 4.89758,-0.55098 6.91784,-1.71416 8.60138,-4.9588 10.52981,-20.41681 6.09137,-39.82349 18.97814,-5.84649 31.37515,-15.27434 31.37515,-25.19195 z m -39.85409,-20.41681 c -1.13257,3.94868 -2.54063,8.0198 -4.13234,12.09092 -1.25501,-2.4488 -2.57123,-4.89759 -4.0099,-7.34638 -1.40805,-2.44879 -2.90794,-4.83637 -4.40783,-7.16272 4.34661,0.64281 8.54017,1.43867 12.55007,2.41818 z m -14.01934,32.59955 c -2.38757,4.13234 -4.83637,8.05041 -7.37699,11.69299 -4.56087,0.39793 -9.18297,0.6122 -13.83568,0.6122 -4.62209,0 -9.24419,-0.21427 -13.77445,-0.58159 -2.54063,-3.64258 -5.02003,-7.53004 -7.4076,-11.63177 -2.32635,-4.00989 -4.43844,-8.08101 -6.36686,-12.18274 1.89781,-4.10173 4.04051,-8.20345 6.33625,-12.21335 2.38757,-4.13234 4.83636,-8.05041 7.37699,-11.69299 4.56087,-0.39792 9.18297,-0.61219 13.83567,-0.61219 4.6221,0 9.2442,0.21427 13.77446,0.58158 2.54062,3.64258 5.02003,7.53004 7.4076,11.63177 2.32635,4.0099 4.43844,8.08101 6.36686,12.18274 -1.92842,4.10173 -4.04051,8.20346 -6.33625,12.21335 z m 9.887,-3.97928 c 1.65293,4.10172 3.06099,8.20345 4.22417,12.18274 -4.0099,0.97952 -8.23407,1.80598 -12.61129,2.44879 1.49989,-2.35696 2.99978,-4.77514 4.40783,-7.25455 1.40806,-2.44879 2.72428,-4.92819 3.97929,-7.37698 z m -31.03845,32.66077 c -2.84672,-2.93856 -5.69344,-6.21382 -8.50955,-9.79517 2.75489,0.12244 5.571,0.21427 8.41772,0.21427 2.87734,0 5.72406,-0.0612 8.50956,-0.21427 -2.75489,3.58135 -5.60161,6.85661 -8.41773,9.79517 z m -22.77377,-18.02924 c -4.3466,-0.64281 -8.54016,-1.43866 -12.55006,-2.41818 1.13257,-3.94868 2.54062,-8.0198 4.13234,-12.09091 1.25501,2.44879 2.57123,4.89758 4.0099,7.34637 1.43866,2.4488 2.90794,4.83637 4.40782,7.16272 z m 22.62072,-63.69921 c 2.84673,2.93855 5.69345,6.21381 8.50956,9.79517 -2.75489,-0.12244 -5.571,-0.21427 -8.41773,-0.21427 -2.87733,0 -5.72405,0.0612 -8.50955,0.21427 2.75489,-3.58136 5.60161,-6.85662 8.41772,-9.79517 z m -22.65133,18.02923 c -1.49988,2.35696 -2.99977,4.77515 -4.40782,7.25455 -1.40806,2.44879 -2.72428,4.89758 -3.97929,7.34638 -1.65294,-4.10173 -3.06099,-8.20346 -4.22417,-12.18275 4.0099,-0.9489 8.23407,-1.77537 12.61128,-2.41818 z m -27.70196,38.3236 c -10.83591,-4.62209 -17.84558,-10.68285 -17.84558,-15.48861 0,-4.80575 7.00967,-10.89713 17.84558,-15.48861 2.63245,-1.13257 5.50978,-2.14269 8.47894,-3.0916 1.74477,5.99954 4.04051,12.24396 6.88723,18.64143 -2.81611,6.36686 -5.08124,12.58067 -6.7954,18.5496 -3.03038,-0.9489 -5.90771,-1.98964 -8.57077,-3.12221 z m 16.46813,43.74156 c -4.16295,-2.38757 -5.96893,-11.47872 -4.56088,-23.1717 0.33671,-2.87733 0.88769,-5.90771 1.56111,-8.99931 5.99954,1.46927 12.55006,2.60184 19.43729,3.33648 4.13234,5.66283 8.41772,10.80529 12.73372,15.30495 -9.97883,9.2748 -19.34546,14.35605 -25.71232,14.35605 -1.37745,-0.0306 -2.54062,-0.3061 -3.45892,-0.82647 z m 72.6067,-23.32475 c 1.43866,11.69299 -0.33671,20.78413 -4.46905,23.20231 -0.9183,0.55098 -2.11208,0.79586 -3.52014,0.79586 -6.33625,0 -15.73349,-5.05064 -25.71232,-14.26422 4.28539,-4.49966 8.57077,-9.61151 12.64189,-15.27434 6.91784,-0.73464 13.46836,-1.86721 19.4679,-3.36709 0.70403,3.0916 1.25501,6.06076 1.59172,8.90748 z m 11.78481,-20.41681 c -2.63245,1.13257 -5.50978,2.1427 -8.47894,3.0916 -1.74477,-5.99954 -4.04051,-12.24396 -6.88723,-18.64143 2.81611,-6.36686 5.08124,-12.58067 6.7954,-18.5496 3.03038,0.94891 5.90771,1.98964 8.60138,3.12221 10.83591,4.62209 17.84557,10.68286 17.84557,15.48861 -0.0306,4.80576 -7.04027,10.89713 -17.87618,15.48861 z"
       id="path1-3"
       style="fill:#61dafb;fill-opacity:1;stroke:#61dafb;stroke-width:2.906;stroke-dasharray:none;stroke-opacity:1" /><circle
       r="13.988728"
       cy="209.97357"
       cx="-580.70142"
       id="circle1-1"
       style="fill:#61dafb;stroke-width:0.306099" /></g></svg>
