<?xml version="1.0" encoding="UTF-8" standalone="no"?>
<!-- Created with Inkscape (http://www.inkscape.org/) -->

<svg
   version="1.1"
   id="svg1"
   width="99.267212"
   height="119.3288"
   viewBox="0 0 99.267213 119.3288"
   xml:space="preserve"
   xmlns="http://www.w3.org/2000/svg"
   xmlns:svg="http://www.w3.org/2000/svg"><defs
     id="defs1" /><g
     id="image-(2)"
     transform="matrix(2.370531,0,0,2.370531,-0.41439407,-1.0097477)"
     fill-rule="nonzero"
     style="fill:none;stroke:none;stroke-width:1"><path
       d="M 39.380144,7.0844167 C 34.709803,0.39665909 25.480015,-1.5866364 18.805053,2.6657197 L 7.0844167,10.138265 C 3.8814726,12.149448 1.6760059,15.418928 1.0108409,19.142 c -0.55945752,3.101857 -0.0686744,6.301703 1.3947046,9.093303 -1.0043062,1.523877 -1.68781846,3.236286 -2.00888641,5.032879 -0.67527873,3.794228 0.20560276,7.700545 2.44393181,10.83775 4.6916667,6.687757 13.9043941,8.671053 20.5793561,4.418697 l 11.720636,-7.472546 c 3.202189,-2.011963 5.407404,-5.281071 6.073576,-9.003734 0.561413,-3.104608 0.07058,-6.307784 -1.394705,-9.101834 1.004307,-1.523877 1.687819,-3.236285 2.008887,-5.032879 0.676024,-3.79485 -0.206579,-7.701981 -2.448197,-10.8377496"
       id="Shape"
       fill="#ff3e00" /><path
       d="M 17.661992,44.724379 C 13.886732,45.705845 9.9001017,44.227675 7.6772727,41.022227 6.3271578,39.137463 5.7936323,36.788106 6.1972651,34.505076 6.2640435,34.133685 6.3566806,33.767413 6.4745,33.408932 l 0.2217879,-0.673894 0.6013863,0.426515 c 1.3862998,1.019754 2.9370848,1.794426 4.5850378,2.290386 l 0.426515,0.13222 -0.04265,0.426515 c -0.05097,0.617616 0.11659,1.233515 0.473432,1.740182 0.666858,0.989714 1.887384,1.448481 3.041053,1.143061 0.253624,-0.06783 0.4953,-0.174282 0.716545,-0.315621 l 11.699311,-7.468281 c 0.580197,-0.366352 0.980738,-0.958658 1.104674,-1.633553 0.126553,-0.684722 -0.02711,-1.391585 -0.426515,-1.96197 -0.670305,-0.966803 -1.87246,-1.412928 -3.011197,-1.117469 -0.254645,0.06873 -0.497596,0.175111 -0.720811,0.315621 l -4.486939,2.849121 c -0.734898,0.468568 -1.537646,0.821029 -2.379955,1.044962 C 14.49831,31.590817 10.507803,30.112473 8.2829242,26.904576 6.9402658,25.016658 6.4144883,22.66757 6.8242424,20.387424 7.2273888,18.14959 8.5521715,16.184083 10.475212,14.970682 L 22.178788,7.5024015 c 0.734897,-0.4685682 1.537645,-0.8210292 2.379954,-1.0449621 3.776596,-0.9834318 7.765533,0.4949616 9.988985,3.7021516 1.350115,1.884764 1.883641,4.234121 1.480008,6.517151 -0.06678,0.371391 -0.159416,0.737663 -0.277235,1.096144 l -0.221788,0.673894 -0.601386,-0.426515 c -1.3863,-1.019754 -2.937085,-1.794426 -4.585038,-2.290386 l -0.426515,-0.13222 0.04265,-0.426515 c 0.05097,-0.617616 -0.11659,-1.233515 -0.473432,-1.740182 -0.669501,-0.967838 -1.872394,-1.414237 -3.011196,-1.11747 -0.253625,0.06783 -0.495301,0.174282 -0.716546,0.315622 l -11.729167,7.442689 c -0.58045,0.365287 -0.979978,0.958384 -1.100409,1.633553 -0.131027,0.684785 0.02302,1.393386 0.426515,1.96197 0.670306,0.966803 1.872461,1.412928 3.011197,1.11747 0.254645,-0.06873 0.497596,-0.175112 0.720811,-0.315622 l 4.469879,-2.849121 c 0.734897,-0.468568 1.537645,-0.821029 2.379954,-1.044962 3.777865,-0.98409 7.768371,0.494254 9.99325,3.702151 1.347132,1.886027 1.877558,4.235276 1.471478,6.517152 -0.403147,2.237834 -1.727929,4.203341 -3.65097,5.416742 l -11.703576,7.468281 c -0.734897,0.468568 -1.537645,0.821029 -2.379954,1.044962"
       id="path1-02"
       fill="#ffffff" /></g></svg>
