<?xml version="1.0" encoding="UTF-8" standalone="no"?>
<!-- Created with Inkscape (http://www.inkscape.org/) -->

<svg
   version="1.1"
   id="svg1"
   width="37.402702"
   height="55.061859"
   viewBox="0 0 37.402703 55.06186"
   xml:space="preserve"
   xmlns="http://www.w3.org/2000/svg"
   xmlns:svg="http://www.w3.org/2000/svg"><defs
     id="defs1" /><g
     id="g340"
     transform="matrix(0.19617294,0,0,0.23317003,85.454072,-93.794422)"><path
       id="rect335"
       style="opacity:1;fill:#d6d7ef;fill-rule:evenodd;stroke-width:0.944882;stroke-linecap:round;stroke-linejoin:round;stroke-opacity:0.996078"
       d="m -319.49717,442.79045 c 4.88734,24.62846 15.02263,32.27652 17.47704,45.69623 l -4.684,-3.40087 -11.48764,-18.01469 -4.96056,-15.14279 z" /><path
       id="path336"
       style="opacity:1;fill:#d6d7ef;fill-rule:evenodd;stroke-width:0.944882;stroke-linecap:round;stroke-linejoin:round;stroke-opacity:0.996078"
       d="m -360.93845,442.81069 c -4.88734,24.62846 -15.02263,32.27652 -17.47704,45.69623 l 4.684,-3.40087 11.48764,-18.01469 4.96056,-15.14279 z" /><path
       id="rect334"
       style="opacity:1;fill:#e9e9f2;fill-rule:evenodd;stroke-width:0.944882;stroke-linecap:round;stroke-linejoin:round;stroke-opacity:0.996078"
       d="m -300.24662,512.44753 c 0,0 19.68751,11.782 32.45219,18.42972 3.71611,2.42587 17.37586,12.49978 16.05222,13.65335 -0.7378,0.9613 -14.56791,-8.88532 -23.91607,-13.10937 -6.07404,-2.88052 -14.56538,-4.11011 -14.56538,-4.11011 l -4.45516,-2.39343 c 0,0 5.04826,36.34536 3.63445,53.838 -1.21019,29.85915 -10.62092,46.47277 -34.52062,55.84672 0,0 25.31042,-34.03191 28.0464,-57.38672 0.14078,-23.64527 -2.72804,-64.76816 -2.72804,-64.76816 z" /><path
       id="path335"
       style="opacity:1;fill:#e9e9f2;fill-rule:evenodd;stroke-width:0.944882;stroke-linecap:round;stroke-linejoin:round;stroke-opacity:0.996078"
       d="m -379.94004,511.71306 c 0,0 -19.68751,11.782 -32.45219,18.42972 -3.71611,2.42587 -17.37586,12.49978 -16.05222,13.65335 0.7378,0.9613 14.56791,-8.88532 23.91607,-13.10937 6.07404,-2.88052 14.56538,-4.11011 14.56538,-4.11011 l 4.45516,-2.39343 c 0,0 -5.04826,36.34536 -3.63445,53.838 1.21019,29.85915 10.62092,46.47277 34.52062,55.84672 0,0 -25.31042,-34.03191 -28.0464,-57.38672 -0.14078,-23.64527 2.72804,-64.76816 2.72804,-64.76816 z" /><path
       id="rect337"
       style="opacity:1;fill:#000000;fill-rule:evenodd;stroke-width:0.944882;stroke-linecap:round;stroke-linejoin:round;stroke-opacity:0.996078"
       d="m -340.04146,402.25759 c 0.67916,0.49986 3.25767,3.80405 3.9326,9.20729 0.78415,6.27767 2.63664,9.43418 3.77445,12.2913 -6.47494,-1.26595 -8.2306,-1.05264 -15.21187,-0.73915 0,0 2.36558,-3.75749 3.50469,-10.97185 0.79525,-5.03665 3.26772,-9.56617 4.00013,-9.78759 z" /><path
       id="path334"
       style="opacity:1;fill:#243363;fill-opacity:1;fill-rule:evenodd;stroke:none;stroke-width:0.944882;stroke-linecap:round;stroke-linejoin:round;stroke-opacity:0.996078"
       d="m -290.53647,523.83316 c -1.04433,-0.10958 -7.70619,-8.82495 -9.24967,-11.15575 12.46302,57.93511 -1.76373,125.8036 -41.66752,125.62667 -34.25256,-0.15187 -54.22736,-73.38124 -38.50913,-125.09739 -2.19784,-0.80697 -1.6812,5.12204 -10.31965,10.44096 -29.51884,3.35417 -36.57611,26.71349 -43.08029,22.16282 -11.94823,-11.95334 26.55832,-41.91429 51.26084,-53.05868 11.18983,-14.45595 15.57397,-22.02992 20.72414,-32.35148 2.6922,-9.34971 -1.86562,-15.03612 2.8304,-27.28418 5.0028,-9.8696 14.34526,-11.80064 19.23856,-11.80064 7.61183,0 12.71102,3.16655 18.36252,13.8408 4.45931,11.00185 -2.29168,15.04833 3.1558,27.29075 4.33701,9.7468 8.43942,14.33679 14.46111,24.35161 1.3928,2.31641 38.45819,26.1846 38.45819,26.1846 0,0 8.53601,6.80116 13.93274,14.82218 4.86065,7.22426 7.36566,15.63926 5.22273,17.06811 -5.76246,3.84225 -11.48268,-5.67411 -19.77873,-11.8584 -8.13929,-6.06743 -11.87826,-7.13336 -25.04204,-9.18198 z" /><path
       id="rect336"
       style="opacity:1;fill:#081042;fill-opacity:1;fill-rule:evenodd;stroke-width:0.944882;stroke-linecap:round;stroke-linejoin:round;stroke-opacity:0.996078"
       d="m -326.02479,634.32875 17.63308,-9.56761 -0.0261,7.18805 c 0,0 6.184,-1.29601 9.83105,0.72323 2.06183,1.06814 4.61171,5.14375 4.61171,5.14375 -8.63751,-0.18274 -23.43005,-0.003 -32.09466,-0.1363 0.0389,-3.27887 -0.005,-1.70496 0.0449,-3.35112 z" /><path
       id="path337"
       style="opacity:1;fill:#081042;fill-opacity:1;fill-rule:evenodd;stroke-width:0.944882;stroke-linecap:round;stroke-linejoin:round;stroke-opacity:0.996078"
       d="m -353.45618,634.91484 -17.63308,-11.43248 0.0261,9.05292 c 0,0 -6.184,-1.29601 -9.83105,0.72323 -2.06183,1.06814 -4.61171,5.14375 -4.61171,5.14375 8.63751,-0.18274 23.43005,-0.003 32.09466,-0.1363 -0.0389,-3.27887 0.005,-1.70496 -0.0449,-3.35112 z" /></g></svg>
