<?xml version="1.0" encoding="UTF-8" standalone="no"?>
<!-- Created with Inkscape (http://www.inkscape.org/) -->

<svg
   version="1.1"
   id="svg1"
   width="570.07288"
   height="597.87134"
   viewBox="0 0 570.07288 597.87134"
   xmlns="http://www.w3.org/2000/svg"
   xmlns:svg="http://www.w3.org/2000/svg">
  <defs
     id="defs1" />
  <g
     id="g1"
     transform="translate(1092.0315,-172.38319)">
    <g
       id="g37"
       transform="matrix(1,0,0,-1,0,942.63768)">
      <g
         id="g34"
         transform="translate(266.23622,-19.567551)">
        <ellipse
           style="opacity:1;fill:#f7bc77;fill-opacity:1;fill-rule:evenodd;stroke:none;stroke-width:0.4059;stroke-linecap:round;stroke-linejoin:round;stroke-dasharray:none;stroke-opacity:0.996078"
           id="path10"
           cx="-1142.8574"
           cy="-15.636931"
           rx="7.5119905"
           ry="11.623474"
           transform="matrix(0.96912138,-0.24658415,0.23304898,0.972465,0,0)" />
        <ellipse
           style="opacity:1;fill:#f7bc77;fill-opacity:1;fill-rule:evenodd;stroke:none;stroke-width:0.4059;stroke-linecap:round;stroke-linejoin:round;stroke-dasharray:none;stroke-opacity:0.996078"
           id="ellipse34"
           cx="944.55035"
           cy="514.3421"
           rx="7.5119905"
           ry="11.623474"
           transform="matrix(-0.96912138,-0.24658415,-0.23304898,0.972465,0,0)" />
        <ellipse
           style="opacity:1;fill:#000000;fill-opacity:1;fill-rule:evenodd;stroke-width:5.14261;stroke-linecap:round;stroke-linejoin:round;stroke-opacity:0.996078"
           id="ellipse9"
           cx="-1073.167"
           cy="251.67947"
           rx="40.17276"
           ry="48.14061" />
        <path
           id="path9"
           style="opacity:1;fill:#f7bc77;fill-rule:evenodd;stroke-width:3.9672;stroke-linecap:round;stroke-linejoin:round;stroke-opacity:0.996078"
           d="m -1034.6555,235.70267 c 0,16.76585 -16.9738,34.0778 -37.9122,34.07782 -20.9383,3e-5 -37.9123,-17.31194 -37.9123,-34.07782 0,-16.76589 16.974,-30.35732 37.9123,-30.35729 20.9384,2e-5 37.9122,13.59144 37.9122,30.35729 z" />
        <path
           id="ellipse13"
           style="opacity:1;fill:#f7bc77;fill-opacity:1;fill-rule:evenodd;stroke-width:0.38595;stroke-linecap:round;stroke-linejoin:round;stroke-opacity:0.996078"
           d="m -1082.4429,205.13827 c -1.3192,4.53843 18.0391,4.72266 17.2552,0.0488 -0.1514,-2.19559 -2.1312,-5.50652 -2.6076,-6.49253 -1.4511,-3.00311 -3.8455,-6.77176 -5.8428,-6.74364 -2.898,0.0408 -4.9829,3.06897 -6.5411,6.66555 -0.5742,1.32537 -1.8546,4.82087 -2.2637,6.52182 z" />
      </g>
      <g
         id="g36">
        <g
           id="g32"
           transform="translate(-61.253133,-413.06177)">
          <g
             id="g22"
             transform="translate(-447.80587,181.88148)">
            <path
               id="path22"
               style="opacity:1;fill:#000000;fill-rule:evenodd;stroke-width:0.342867;stroke-linecap:round;stroke-linejoin:round;stroke-opacity:0.996078"
               d="m -247.15139,971.54723 -6.6437,0.54301 -9.64738,0.39063 -14.75821,-1.3631 0.70534,-2.74692 18.18163,0.68417 12.07906,-1.65294 z" />
            <path
               id="rect14"
               style="opacity:1;fill:#263c42;fill-opacity:1;fill-rule:evenodd;stroke-width:0.4;stroke-linecap:round;stroke-linejoin:round;stroke-opacity:0.996078"
               d="m -296.5572,733.68121 64.58876,-3.13436 -6.43367,235.45913 c 0,0 -12.72483,3.24332 -21.36312,3.52835 -8.63828,0.28502 -22.11001,-1.38379 -22.11001,-1.38379 z" />
            <path
               id="path15"
               style="opacity:1;fill:#28220b;fill-opacity:1;fill-rule:evenodd;stroke-width:0.154354;stroke-linecap:round;stroke-linejoin:round;stroke-opacity:0.996078"
               d="m -221.50418,999.17057 -24.62848,1.31073 -10.08694,-3.00565 -0.35735,3.48765 c 0,0 -1.86899,0.9076 -11.76268,0.2043 -3.7437,-0.2661 -6.1653,-0.048 -10.19182,-1.81649 -1.48147,-6.59315 0.23567,-28.38909 0.23567,-28.38909 0,0 10.60384,1.0422 19.24213,0.9997 8.63828,-0.042 11.78449,-0.62881 11.78449,-0.62881 0,0 2.82963,4.11675 6.95613,6.48006 2.70109,1.54697 6.39079,1.42866 8.69929,2.09405 7.59931,2.19037 21.67895,1.5373 22.90105,10.68243 0.22632,1.6937 -1.36645,2.3922 -2.55984,3.6094 -3.02325,3.0837 -10.23165,4.97172 -10.23165,4.97172 z" />
          </g>
          <g
             id="g25"
             transform="matrix(-1,0,0,1,-1043.678,181.88148)">
            <path
               id="path23"
               style="opacity:1;fill:#000000;fill-rule:evenodd;stroke-width:0.342867;stroke-linecap:round;stroke-linejoin:round;stroke-opacity:0.996078"
               d="m -247.15139,971.54723 -6.6437,0.54301 -9.64738,0.39063 -14.75821,-1.3631 0.70534,-2.74692 18.18163,0.68417 12.07906,-1.65294 z" />
            <path
               id="path24"
               style="opacity:1;fill:#263c42;fill-opacity:1;fill-rule:evenodd;stroke-width:0.4;stroke-linecap:round;stroke-linejoin:round;stroke-opacity:0.996078"
               d="m -296.5572,733.68121 64.58876,-3.13436 -6.43367,235.45913 c 0,0 -12.72483,3.24332 -21.36312,3.52835 -8.63828,0.28502 -22.11001,-1.38379 -22.11001,-1.38379 z" />
            <path
               id="path25"
               style="opacity:1;fill:#28220b;fill-opacity:1;fill-rule:evenodd;stroke-width:0.154354;stroke-linecap:round;stroke-linejoin:round;stroke-opacity:0.996078"
               d="m -221.50418,999.17057 -24.62848,1.31073 -10.08694,-3.00565 -0.35735,3.48765 c 0,0 -1.86899,0.9076 -11.76268,0.2043 -3.7437,-0.2661 -6.1653,-0.048 -10.19182,-1.81649 -1.48147,-6.59315 0.23567,-28.38909 0.23567,-28.38909 0,0 10.60384,1.0422 19.24213,0.9997 8.63828,-0.042 11.78449,-0.62881 11.78449,-0.62881 0,0 2.82963,4.11675 6.95613,6.48006 2.70109,1.54697 6.39079,1.42866 8.69929,2.09405 7.59931,2.19037 21.67895,1.5373 22.90105,10.68243 0.22632,1.6937 -1.36645,2.3922 -2.55984,3.6094 -3.02325,3.0837 -10.23165,4.97172 -10.23165,4.97172 z" />
          </g>
        </g>
        <g
           id="g35"
           transform="translate(-252.17929,-330.06133)"
           style="fill:#1d2d31;fill-opacity:1">
          <path
             id="path34"
             style="fill:#1d2d31;fill-opacity:1;fill-rule:evenodd;stroke-width:0.518303;stroke-linecap:round;stroke-linejoin:round;stroke-opacity:0.996078"
             d="m -487.93893,829.11291 c -0.6328,13.00963 -29.1528,20.85842 -66.0902,20.85842 -36.9374,0 -67.672,-8.63972 -67.672,-20.85842 0,-12.2187 29.9437,-22.12391 66.8811,-22.12391 36.9374,0 67.4747,9.91964 66.8811,22.12391 z" />
          <rect
             style="fill:#1d2d31;fill-opacity:1;fill-rule:evenodd;stroke:none;stroke-width:1.10178;stroke-linecap:round;stroke-linejoin:round;stroke-dasharray:none;stroke-opacity:0.996078"
             id="rect35"
             width="22.227774"
             height="49.922462"
             x="-565.92969"
             y="761.19836" />
        </g>
        <g
           id="g33"
           transform="translate(-448.35211,-225.4522)">
          <path
             id="rect12"
             style="opacity:1;fill:#ffffff;fill-rule:evenodd;stroke-width:0.4;stroke-linecap:round;stroke-linejoin:round;stroke-opacity:0.996078"
             d="m -383.66354,508.55615 26.12864,-1.11649 25.00254,1.3312 2.49063,5.07781 -27.70784,-1.22523 -27.374,0.92463 z" />
          <path
             id="path12"
             style="opacity:1;fill:#f7bc77;fill-opacity:1;fill-rule:evenodd;stroke-width:0.4;stroke-linecap:round;stroke-linejoin:round;stroke-opacity:0.996078"
             d="m -383.24764,508.828 25.31274,-0.34354 25.26019,0.47236 -0.25765,-13.62326 c 0,0 -8.7818,4.91616 -13.56714,6.33391 -3.75979,1.11392 -11.65007,1.63321 -11.65007,1.63321 0,0 -8.42424,-0.37181 -12.37749,-1.67846 -4.65888,-1.53989 -12.89235,-7.10455 -12.89235,-7.10455 z" />
          <path
             id="rect10"
             style="fill:#263c42;fill-opacity:1;fill-rule:evenodd;stroke-width:0.4;stroke-linecap:round;stroke-linejoin:round;stroke-opacity:0.996078"
             d="m -429.98673,533.44186 34.44323,-10.87582 10.26663,-9.34542 28.1776,-0.8579 27.90967,1.24907 8.68525,8.6827 33.92253,9.64989 -7.02588,107.78203 8.97922,86.12454 -31.37808,3.79292 -37.61538,0.0536 -4.62407,-43.77271 -5.2355,43.75074 -33.32968,0.47283 -34.82183,-3.92032 9.50944,-86.02338 z" />
          <path
             id="path19"
             style="fill:#f7bc77;fill-opacity:1;fill-rule:evenodd;stroke-width:0.4;stroke-linecap:round;stroke-linejoin:round;stroke-opacity:0.996078"
             d="m -139.27394,598.78532 c 0.48015,0.18566 8.0404,-2.49101 16.49746,-4.22679 3.81925,-0.23297 7.4033,-0.2587 11.00048,-0.93213 3.18184,-0.59567 6.33111,-1.79156 10.28576,-2.72619 3.724471,1.53261 3.148826,3.90521 2.766575,5.71011 -2.475795,3.21824 -7.674185,4.78364 -10.933445,5.15468 -2.37989,0.27094 -2.96238,0.27738 -3.27775,1.33055 0.0595,3.04398 13.491962,5.32605 13.491962,5.32605 0,0 4.685867,1.15549 10.501408,2.49697 7.78876,1.79663 15.943705,4.37514 15.299073,7.93153 -1.792771,6.52651 -31.255193,-4.23411 -32.791853,-2.01794 -1.3534,1.95187 25.371386,10.35109 29.88357,12.53386 2.837497,1.37264 1.6386,4.30284 1.052573,5.24282 -2.999424,4.81103 -31.744653,-9.13876 -32.042153,-7.4296 -0.5369,1.79193 18.778859,9.60278 22.323345,14.11552 0.516137,0.65715 1.113188,2.3055 0.269858,3.77608 -0.59929,1.04499 -1.932644,1.94661 -3.017286,1.79367 -3.190949,-0.44993 -16.095647,-7.68403 -19.374277,-9.40357 -1.29126,-0.68741 -6.99795,-4.16582 -7.4941,-3.49699 -1.35044,1.82049 12.54948,9.15201 16.33475,13.70356 0.846771,1.0182 0.481826,2.53242 0.100833,3.10187 -0.341527,0.51045 -1.278061,1.23005 -2.573103,1.29027 -2.04587,0.0951 -9.88747,-5.1267 -16.64214,-9.11467 -8.09523,-4.77945 -19.85706,-9.96514 -19.85706,-9.96514 l -11.08942,-9.28862 z" />
          <path
             id="path27"
             style="fill:#263c42;fill-opacity:1;fill-rule:evenodd;stroke-width:0.4;stroke-linecap:round;stroke-linejoin:round;stroke-opacity:0.996078"
             d="m -286.60053,531.93973 70.30354,37.6204 72.66642,26.35652 -12.64643,36.51171 -134.32257,-47.29511 z" />
          <path
             id="path28"
             style="fill:#ffffff;fill-opacity:1;fill-rule:evenodd;stroke-width:0.4;stroke-linecap:round;stroke-linejoin:round;stroke-opacity:0.996078"
             d="m -144.06045,595.84386 c 1.07221,0.41459 3.8637,2.06482 5.21071,2.61656 l -9.86463,27.66832 -5.31824,-0.65687 z" />
          <path
             id="path29"
             style="fill:#f7bc77;fill-opacity:1;fill-rule:evenodd;stroke-width:0.4;stroke-linecap:round;stroke-linejoin:round;stroke-opacity:0.996078"
             d="m -578.01197,600.07865 c -0.48015,0.18566 -8.0404,-2.49101 -16.49746,-4.22679 -3.81925,-0.23297 -7.4033,-0.2587 -11.00048,-0.93213 -3.18184,-0.59567 -6.33111,-1.79156 -10.28576,-2.72619 -3.72447,1.53261 -3.14883,3.90521 -2.76658,5.71011 2.4758,3.21824 7.67419,4.78364 10.93345,5.15468 2.37989,0.27094 2.96238,0.27738 3.27775,1.33055 -0.0595,3.04398 -13.49196,5.32605 -13.49196,5.32605 0,0 -4.68587,1.15549 -10.50141,2.49697 -7.78876,1.79663 -15.94371,4.37514 -15.29908,7.93153 1.79278,6.52651 31.2552,-4.23411 32.79186,-2.01794 1.3534,1.95187 -25.37139,10.35109 -29.88357,12.53386 -2.8375,1.37264 -1.6386,4.30284 -1.05258,5.24282 2.99943,4.81103 31.74466,-9.13876 32.04216,-7.4296 0.5369,1.79193 -18.77886,9.60278 -22.32335,14.11552 -0.51613,0.65715 -1.11319,2.3055 -0.26986,3.77608 0.59929,1.04499 1.93265,1.94661 3.01729,1.79367 3.19095,-0.44993 16.09565,-7.68403 19.37428,-9.40357 1.29126,-0.68741 6.99795,-4.16582 7.4941,-3.49699 1.35044,1.82049 -12.54948,9.15201 -16.33475,13.70356 -0.84677,1.0182 -0.48183,2.53242 -0.10084,3.10187 0.34153,0.51045 1.27807,1.23005 2.57311,1.29027 2.04587,0.0951 9.88747,-5.1267 16.64214,-9.11467 8.09523,-4.77945 19.85706,-9.96514 19.85706,-9.96514 l 11.08942,-9.28862 z" />
          <path
             id="path30"
             style="fill:#263c42;fill-opacity:1;fill-rule:evenodd;stroke-width:0.4;stroke-linecap:round;stroke-linejoin:round;stroke-opacity:0.996078"
             d="m -429.9795,533.44242 -70.7985,36.99745 -72.66642,26.35652 12.64643,36.51171 134.82258,-47.38335 z" />
          <path
             id="path31"
             style="fill:#ffffff;fill-rule:evenodd;stroke-width:0.4;stroke-linecap:round;stroke-linejoin:round;stroke-opacity:0.996078"
             d="m -573.22546,597.13719 c -1.07221,0.41459 -3.8637,2.06482 -5.21071,2.61656 l 9.86463,27.66832 5.31824,-0.65687 z" />
        </g>
      </g>
    </g>
  </g>
</svg>
